<?xml version="1.0" encoding="utf-8"?>
<!-- Generator: Adobe Illustrator 23.0.2, SVG Export Plug-In . SVG Version: 6.00 Build 0)  -->
<svg version="1.1" id="Layer_1" xmlns="http://www.w3.org/2000/svg" xmlns:xlink="http://www.w3.org/1999/xlink" x="0px" y="0px"
	 viewBox="0 0 3000 2000" style="enable-background:new 0 0 3000 2000;" xml:space="preserve">
<style type="text/css">
	.st0{display:none;}
	.st1{fill:#080A4D;}
</style>
<path class="st0" d="M77.2,1609.99c0-16.56,0-33.12,0-49.68c0-16.63,0-33.25,0-49.88c0-16.56,0-33.12,0-49.68
	c0-16.56,0-33.12,0-49.68c0-16.7,0-33.4,0-50.1c0-16.56,0-33.12,0-49.68c0-16.56,0-33.12,0-49.68s0-33.12,0-49.68
	c0-16.63,0-33.25,0-49.88c0-16.56,0-33.12,0-49.68s0-33.12,0-49.68c0-16.63,0-33.25,0-49.88c0-16.56,0-33.12,0-49.68
	c0-16.63,0-33.27,0-49.9c0-16.56,0-33.12,0-49.68c0-16.63,0-33.25,0-49.88c0-16.56,0-33.12,0-49.68c0-16.56,0-33.12,0-49.68
	c0-16.63,0-33.25,0-49.88c0-16.56,0-33.12,0-49.68s0-33.12,0-49.68s0-33.12,0-49.68c0-16.63,0-33.25,0-49.88
	c0-16.56,0-33.12,0-49.67c0-8.24,0-16.48,0-24.73c0-1.94,0-3.88,0-5.82c0-0.37-0.2-1.45,0.02-1.79c0.24-0.39,1-0.22,1.39-0.19
	c3.86,0.27,7.81,0.03,11.68,0.03c16.62,0,33.24,0,49.86,0c16.56,0,33.12,0,49.69,0s33.12,0,49.69,0s33.12,0,49.69,0s33.12,0,49.69,0
	c16.63,0,33.26,0,49.88,0c16.56,0,33.12,0,49.69,0c16.63,0,33.26,0,49.88,0c16.63,0,33.27,0,49.9,0c16.57,0,33.13,0,49.7,0
	c16.56,0,33.12,0,49.69,0c16.56,0,33.12,0,49.69,0c16.63,0,33.26,0,49.88,0c16.56,0,33.12,0,49.69,0c16.56,0,33.12,0,49.69,0
	c16.63,0,33.26,0,49.88,0c16.56,0,33.12,0,49.69,0c16.56,0,33.12,0,49.69,0c16.56,0,33.12,0,49.69,0c16.7,0,33.4,0,50.11,0
	c16.56,0,33.13,0,49.69,0c16.56,0,33.12,0,49.69,0c16.63,0,33.26,0,49.88,0c16.56,0,33.12,0,49.69,0s33.12,0,49.69,0
	c16.56,0,33.12,0,49.69,0c16.63,0,33.26,0,49.88,0c16.56,0,33.12,0,49.69,0c16.64,0,33.27,0,49.91,0c16.63,0,33.26,0,49.89,0
	c16.56,0,33.12,0,49.69,0s33.12,0,49.69,0c16.56,0,33.12,0,49.69,0c16.63,0,33.26,0,49.88,0c16.56,0,33.12,0,49.69,0
	c16.56,0,33.12,0,49.69,0c16.63,0,33.26,0,49.88,0c16.56,0,33.12,0,49.69,0c16.64,0,33.27,0,49.91,0c16.56,0,33.13,0,49.69,0
	c16.56,0,33.12,0,49.69,0c16.63,0,33.26,0,49.88,0c16.56,0,33.12,0,49.69,0c16.63,0,33.26,0,49.88,0c16.56,0,33.12,0,49.69,0
	c16.56,0,33.12,0,49.69,0s33.12,0,49.69,0s33.12,0,49.69,0c16.7,0,33.41,0,50.11,0c16.56,0,33.12,0,49.69,0c16.56,0,33.12,0,49.69,0
	c16.63,0,33.26,0,49.88,0c16.56,0,33.12,0,49.69,0s33.12,0,49.69,0s33.12,0,49.69,0c16.63,0,33.26,0,49.88,0
	c15.27,0,30.55,0,45.82,0c0,16.56,0,33.12,0,49.68c0,16.63,0,33.25,0,49.88c0,16.56,0,33.12,0,49.68c0,16.56,0,33.12,0,49.68
	c0,16.7,0,33.4,0,50.1c0,16.56,0,33.12,0,49.68s0,33.12,0,49.68s0,33.12,0,49.68c0,16.63,0,33.25,0,49.88c0,16.56,0,33.12,0,49.68
	c0,16.56,0,33.12,0,49.68c0,16.63,0,33.25,0,49.88c0,16.56,0,33.12,0,49.68c0,16.63,0,33.27,0,49.9c0,16.56,0,33.12,0,49.68
	c0,16.63,0,33.25,0,49.88c0,16.56,0,33.12,0,49.68s0,33.12,0,49.68c0,16.63,0,33.25,0,49.88c0,16.56,0,33.12,0,49.68
	s0,33.12,0,49.68c0,16.56,0,33.12,0,49.68c0,16.63,0,33.25,0,49.88c0,16.56,0,33.12,0,49.67c0,8.24,0,16.48,0,24.73
	c0,1.94,0,3.88,0,5.82c0,0.37,0.2,1.45-0.02,1.79c-0.24,0.39-1,0.22-1.39,0.19c-3.86-0.27-7.81-0.03-11.68-0.03
	c-16.62,0-33.24,0-49.85,0c-16.56,0-33.12,0-49.69,0s-33.12,0-49.69,0s-33.12,0-49.69,0s-33.12,0-49.69,0c-16.63,0-33.26,0-49.88,0
	c-16.56,0-33.12,0-49.69,0c-16.63,0-33.26,0-49.88,0c-16.63,0-33.27,0-49.9,0c-16.57,0-33.13,0-49.7,0c-16.56,0-33.12,0-49.69,0
	s-33.12,0-49.69,0c-16.63,0-33.26,0-49.88,0c-16.56,0-33.12,0-49.69,0c-16.56,0-33.12,0-49.69,0c-16.63,0-33.26,0-49.88,0
	c-16.56,0-33.12,0-49.69,0c-16.56,0-33.12,0-49.69,0s-33.12,0-49.69,0c-16.7,0-33.4,0-50.11,0c-16.56,0-33.13,0-49.69,0
	c-16.56,0-33.12,0-49.69,0c-16.63,0-33.26,0-49.88,0c-16.56,0-33.12,0-49.69,0s-33.12,0-49.69,0c-16.56,0-33.12,0-49.69,0
	c-16.63,0-33.26,0-49.88,0c-16.56,0-33.12,0-49.69,0c-16.64,0-33.27,0-49.91,0c-16.63,0-33.26,0-49.89,0c-16.56,0-33.12,0-49.69,0
	s-33.12,0-49.69,0c-16.56,0-33.12,0-49.69,0c-16.63,0-33.26,0-49.88,0c-16.56,0-33.12,0-49.69,0c-16.56,0-33.12,0-49.69,0
	c-16.63,0-33.26,0-49.88,0c-16.56,0-33.12,0-49.69,0c-16.64,0-33.27,0-49.91,0c-16.56,0-33.13,0-49.69,0c-16.56,0-33.12,0-49.69,0
	c-16.63,0-33.26,0-49.88,0c-16.56,0-33.12,0-49.69,0c-16.63,0-33.26,0-49.88,0c-16.56,0-33.12,0-49.69,0c-16.56,0-33.12,0-49.69,0
	c-16.56,0-33.12,0-49.69,0c-16.56,0-33.12,0-49.69,0c-16.7,0-33.41,0-50.11,0c-16.56,0-33.12,0-49.69,0c-16.56,0-33.12,0-49.69,0
	c-16.63,0-33.26,0-49.88,0c-16.56,0-33.12,0-49.69,0s-33.12,0-49.69,0s-33.12,0-49.69,0c-16.63,0-33.26,0-49.88,0
	C107.74,1609.99,92.47,1609.99,77.2,1609.99z M232.26,1377.74c0-17,0-34,0-50.99c0-16.88,0-33.75,0-50.63c0-16.95,0-33.9,0-50.85
	c0-16.95,0-33.89,0-50.84c0-16.9,0-33.8,0-50.69c0-16.95,0-33.89,0-50.84c0-16.96-0.02-33.91-0.01-50.87c0-8.32,0.01-16.64,0-24.96
	c0-4.08-0.02-8.17,0.06-12.25c0.01-0.53-0.05-0.93,0.38-1.28c0.65-0.54,1.87-0.68,2.67-0.76c1.98-0.2,4.01,0.05,5.99,0.04
	c16.83-0.01,33.66-0.02,50.5-0.03c16.91,0,33.83-0.01,50.74-0.01c16.96,0,33.92,0,50.88,0c16.92,0,33.85,0,50.77,0
	c16.92,0,33.84,0,50.76,0c16.88,0,33.77,0.01,50.65,0.05c8.47,0.02,16.94,0.03,25.41-0.03c2.06-0.01,4.13-0.1,6.19-0.02
	c1.02,0.04,3.11-0.25,3.71,0.77c0.64,1.08,0.47,3.08,0.46,4.25c-0.02,2.05-0.09,4.11-0.09,6.16c-0.01,16.82,0.04,33.63,0.04,50.45
	c0,16.93,0,33.87,0,50.8c0,16.96,0,33.92,0,50.88c0,16.89,0,33.79,0,50.68c0,16.9,0,33.8,0,50.71c0,17.01,0,34.02,0,51.02
	c0,16.89,0,33.78,0,50.67c0,8.38-0.04,16.76,0.01,25.14c0.01,1.03-0.32,2.83,0.66,3.53c0.88,0.63,2.31,0.5,3.33,0.47
	c3.72-0.1,7.44-0.03,11.16-0.05c8.49-0.05,16.97-0.05,25.46-0.08c4.23-0.01,8.46-0.03,12.69-0.04c2.04-0.01,4.09-0.01,6.13-0.02
	c1.36,0,3.73,0.53,4.75-0.65c0.48-0.56,0.31-1.52,0.32-2.2c0.03-1.12,0.05-2.24,0.07-3.36c0.04-2.11,0.06-4.21,0.06-6.32
	c0.02-4.15-0.01-8.29-0.03-12.44c-0.04-8.49-0.02-16.98-0.02-25.47c0-16.91,0-33.82,0-50.73c0-17.01,0-34.03,0-51.04
	c0-16.91,0-33.83,0-50.74c0-16.9,0-33.8,0-50.71c0-17.01,0-34.01,0-51.02c0-16.92,0-33.84,0-50.76c0-16.9,0-33.8,0-50.71
	c0-17,0-34,0-51c0-16.93,0-33.85,0-50.78c0-16.9,0-33.8,0-50.71s0-33.8,0-50.71c0-16.92,0-33.85,0-50.77c0-17,0-34,0-51.01
	c0-16.9,0-33.8,0-50.71c0-16.85-0.18-33.7,0.02-50.55c0.02-1.72,0.16-3.85-0.42-5.5c-0.28-0.8-1.27-0.59-2-0.64
	c-1.05-0.07-2.1-0.1-3.16-0.13c-4.21-0.11-8.43-0.17-12.64-0.2c-8.42-0.07-16.83-0.05-25.25,0c-4.19,0.03-8.39,0.08-12.58,0.19
	c-2.03,0.05-4.06,0.1-6.09,0.22c-0.48,0.03-1.56-0.1-1.97,0.2c-0.48,0.35-0.52,1.23-0.55,1.76c-0.25,3.76-0.03,7.58,0.02,11.34
	c0.05,4.16,0.02,8.32,0.02,12.49c0,16.92,0,33.84-0.01,50.76c0,16.97,0,33.93,0,50.9c0,16.89,0,33.79,0,50.68
	c0,16.94,0,33.87,0,50.81c0,16.97,0,33.94,0,50.92c0,16.89,0,33.79,0,50.68c0,8.46,0,16.92,0,25.39c0,3.87,0.22,7.8-0.19,11.65
	c-0.06,0.56-0.07,0.97-0.59,1.25c-0.5,0.28-1.2,0.31-1.76,0.37c-1.67,0.17-3.35,0.1-5.02,0.05c-8.36-0.29-16.76-0.04-25.12-0.04
	c-8.48,0-16.95,0-25.43,0c-16.89,0-33.78,0-50.66,0.01c-16.91,0-33.83,0-50.74,0c-16.98,0-33.97,0-50.95,0c-16.89,0-33.78,0-50.66,0
	c-16.91,0-33.82,0-50.72,0c-8.35,0-16.71-0.11-25.06,0.06c-2.05,0.04-4.1,0.08-6.15,0.03c-0.95-0.02-1.9-0.06-2.84-0.15
	c-0.74-0.07-1.98-0.06-2.65-0.4c-0.54-0.27-0.41-0.69-0.42-1.29c-0.02-1.08-0.05-2.16-0.07-3.24c-0.04-2.05-0.04-4.1-0.04-6.14
	c0-16.85,0-33.7,0-50.55c0-16.89,0-33.78,0-50.67c0-16.96,0-33.93,0-50.89c0-16.94,0-33.87,0-50.81c0-16.89,0-33.78,0-50.67
	c0-16.89-0.03-33.78,0-50.67c0.01-8.49,0.08-16.97,0.11-25.46c0.01-4.24,0.02-8.49,0-12.73c-0.02-4.14,0.09-8.33-0.15-12.46
	c-0.05-0.86-0.12-1.79-0.32-2.63c-0.12-0.53-0.09-0.58-0.57-0.72c-1.75-0.53-3.87-0.28-5.67-0.25c-4.13,0.07-8.27,0.01-12.41,0.01
	c-8.46,0-16.92,0-25.37,0c-4.17,0-8.33,0-12.5,0.01c-1.98,0-4.08-0.2-6.03,0.14c-0.41,0.07-1.43,0.13-1.69,0.51
	c-0.31,0.46-0.08,1.63-0.08,2.13c-0.14,8.41-0.08,16.82-0.07,25.23c0.02,16.9,0,33.8,0,50.7c0,17.01,0,34.03,0,51.04
	c0,16.91,0,33.82,0,50.74c0,16.9,0,33.8,0,50.71c0,17.01,0,34.02,0,51.02c0,16.92,0,33.84,0,50.76c0,16.9,0,33.8,0,50.71
	c0,17,0,34,0,51c0,16.93,0,33.85,0,50.78c0,16.9,0,33.8,0,50.71c0,17,0,33.99,0,50.99c0,16.93,0,33.86,0,50.79
	c0,16.9,0,33.8,0,50.71c0,16.97,0,33.94,0,50.9c0,16.92,0,33.84,0,50.76c0,4.16,0,8.33,0,12.49c0,4.12-0.25,8.32,0,12.44
	c0.04,0.74-0.05,2.87,0.6,3.35c0.38,0.28,1.65,0.11,2.08,0.13c1.04,0.05,2.08,0.09,3.12,0.13c4.17,0.13,8.34,0.12,12.51,0.12
	c7.75,0,15.49,0.04,23.24-0.01c3.82-0.02,7.64-0.06,11.46-0.12C224.42,1378.08,228.42,1378.24,232.26,1377.74z M1541.66,1066.02
	c-2.45-6.25-4.86-12.52-7.88-18.52c-2.97-5.92-6.39-11.61-10.28-16.96c-7.25-9.97-16.16-18.73-26.29-25.76
	c-10.35-7.18-21.88-12.63-33.91-16.33c-12.78-3.94-26.11-5.9-39.45-6.54c-13.64-0.65-27.34,0.05-40.83,2.24
	c-12.96,2.11-25.74,5.53-37.84,10.66c-11.43,4.85-22.26,11.23-31.82,19.17c-9.46,7.85-17.56,17.31-23.17,28.29
	c-0.7,1.38-1.22,2.83-1.92,4.21c-0.29,0.57-1.44,2.36-1.92,1.01c-0.27-0.75-0.07-1.76-0.07-2.55c-0.01-1.68-0.08-3.35-0.11-5.03
	c-0.09-7.02,0.06-14.04,0.06-21.06c0-3.49,0-6.97-0.01-10.46c0-3.34-0.17-6.72,0.03-10.06c0.08-1.26,0.25-2.69-0.32-3.86
	c-0.55-1.13-1.85-1.02-2.94-1.03c-3.34-0.04-6.69,0-10.03-0.01c-13.86-0.01-27.75,0.22-41.61-0.07c-1.36-0.03-2.92-0.04-4.22,0.4
	c-0.68,0.23-0.54,0.61-0.56,1.29c-0.03,0.8-0.04,1.6-0.05,2.4c-0.04,3.51-0.08,7.03-0.11,10.54c-0.06,6.94-0.1,13.88-0.13,20.81
	c-0.07,13.97-0.12,27.93-0.16,41.9c-0.04,14.02-0.08,28.05-0.11,42.07c-0.03,13.97-0.06,27.94-0.08,41.92
	c-0.02,14.01-0.04,28.02-0.05,42.02c-0.01,14.04-0.02,28.08-0.03,42.12c-0.01,14.12-0.01,28.24,0,42.37
	c0,14.09,0.02,28.17,0.04,42.26c0.02,13.97,0.04,27.94,0.14,41.92c0.02,3.28-0.1,6.62,0.14,9.9c0.1,1.41,0.17,2.46,1.67,2.89
	c1.34,0.38,2.8,0.23,4.17,0.16c3.33-0.18,6.68-0.07,10.01-0.08c3.56-0.01,7.12-0.02,10.68-0.03c6.97-0.02,13.93-0.05,20.9-0.07
	c3.13-0.01,6.3-0.19,9.42,0.02c1.05,0.07,2.37,0.23,2.92-0.89c0.42-0.85,0.28-1.91,0.25-2.83c-0.16-6.66,0.04-13.36,0.04-20.03
	c0-7.04,0-14.08,0-21.12c0-14.15,0-28.29,0-42.44c0-14.15,0-28.29,0-42.44c0-14.15,0-28.29,0-42.44c0-14.09-0.14-28.19-0.1-42.28
	c0.03-13.73,0.12-27.5,2.05-41.11c1.84-12.94,5.27-25.7,10.95-37.5c5.32-11.07,12.61-21.15,21.86-29.26
	c9.34-8.2,20.37-14.23,32.12-18.2c12.46-4.21,25.6-6.14,38.72-6.69c13.45-0.57,27.11,0.41,40.18,3.72
	c11.16,2.83,21.84,7.89,30.66,15.34c9.11,7.69,15.76,17.79,20.37,28.71c5,11.84,7.75,24.57,9.34,37.29
	c1.71,13.68,1.9,27.47,1.97,41.23c0.07,14.13-0.06,28.27-0.06,42.4c0,14.07,0,28.15,0,42.22c0,14.14,0,28.28,0,42.42
	c0,14.14,0,28.28,0,42.42c0,13.98,0.03,27.95,0,41.93c0,1.67-0.07,3.34-0.03,5.01c0.02,0.73,0.07,1.45,0.17,2.17
	c0.08,0.55,0.06,1.46,0.4,1.93c0.44,0.61,2.2,0.5,2.96,0.53c1.69,0.06,3.39,0.02,5.08,0.02c7.06,0.01,14.11,0.01,21.17,0.01
	c7.05,0,14.09-0.01,21.14-0.02c1.75,0,3.5,0.01,5.25-0.01c1.12-0.01,2.55-0.08,3.61-0.49c0.8-0.31,0.36-1.88,0.36-2.62
	c0-1.71,0-3.41,0-5.12c0-14.12,0-28.24,0-42.35c0-14.17,0-28.34,0-42.51c0-14.17,0-28.34,0-42.51c0-14.14,0-28.28,0-42.42
	c-0.01-14.13-0.02-28.27-0.01-42.4c0.02-13.77,0.47-27.56,2.77-41.17c2.12-12.56,5.78-24.94,11.65-36.28
	c5.57-10.76,13.2-20.35,22.68-27.93c9.73-7.78,21.12-13.17,33.07-16.54c12.72-3.6,26.1-5.09,39.29-5.23
	c13.07-0.14,26.36,1.17,38.93,4.89c11.39,3.37,22.11,8.98,30.62,17.36c8.21,8.09,14.12,18.24,18.17,28.98
	c4.63,12.28,7.05,25.33,8.34,38.35c1.37,13.75,1.46,27.61,1.44,41.42c-0.02,14.1-0.11,28.21-0.11,42.31c0,14.13,0,28.26,0,42.4
	c0,14.1,0,28.2,0,42.3c0,14.11,0,28.22,0,42.33c0,14.03-0.26,28.1,0.05,42.13c0.02,0.86,0.08,1.73,0.08,2.59
	c0,0.47-0.15,1.14,0.06,1.57c0.59,1.16,2.84,0.88,3.87,0.88c3.54-0.03,7.07,0.01,10.61,0.02c7.04,0.01,14.07,0.02,21.11,0.02
	c7,0,14,0.07,21,0.01c1.25-0.01,3.06,0.08,3.26-1.45c0.2-1.54,0.18-3.12,0.14-4.67c-0.08-3.49-0.04-6.98-0.04-10.47
	c0-14.18,0-28.36,0.01-42.55c0-14.07,0-28.14,0-42.21c0-14.17,0-28.34,0-42.51c0-14.16,0-28.32,0-42.47
	c0-14.12,0.09-28.24-0.05-42.35c-0.14-14.02-0.69-28.04-2.41-41.97c-1.65-13.34-4.18-26.6-8.26-39.42
	c-3.82-12-8.99-23.62-15.9-34.16c-6.74-10.27-15.17-19.39-24.98-26.79c-10.08-7.61-21.5-13.27-33.47-17.24
	c-12.64-4.19-25.84-6.52-39.09-7.59c-13.58-1.1-27.31-1-40.88,0.23c-13.39,1.21-26.73,3.67-39.49,7.98
	c-11.86,4.01-23.19,9.65-33.24,17.13c-9.83,7.31-18.46,16.3-25.36,26.43C1551.5,1044.08,1546.52,1055.07,1541.66,1066.02z
	 M2232.76,1062.14c-0.82,0.08-1.19,0.12-1.55-0.7c-0.35-0.8-0.72-1.58-1.15-2.35c-0.98-1.76-2.01-3.49-3.01-5.23
	c-1.99-3.48-4.03-6.93-6.3-10.23c-4.39-6.37-9.49-12.27-15.02-17.68c-10.76-10.51-23.24-19.24-36.63-26.06
	c-13.94-7.1-28.92-12.03-44.28-14.93c-16.21-3.05-32.82-3.99-49.28-3.03c-16.05,0.94-32.03,3.69-47.39,8.47
	c-14.79,4.6-28.98,11.16-41.92,19.7c-12.56,8.29-23.91,18.41-33.63,29.89c-9.81,11.58-17.91,24.56-24.35,38.3
	c-6.76,14.41-11.75,29.63-15.16,45.16c-3.55,16.16-5.33,32.67-5.95,49.19c-0.63,16.68-0.15,33.43,1.87,50.01
	c1.96,16.1,5.31,32.09,10.37,47.51c4.9,14.91,11.52,29.26,19.89,42.54c8.15,12.93,17.99,24.8,29.4,34.98
	c11.38,10.15,24.28,18.54,38.07,25.04c14.32,6.75,29.53,11.43,45.12,14.17c16.11,2.83,32.58,3.81,48.91,2.78
	c16.06-1.02,31.99-4.07,47.24-9.23c14.5-4.9,28.33-11.8,40.86-20.61c12.09-8.51,23.21-18.61,32.01-30.53
	c2.23-3.02,4.3-6.15,6.18-9.4c0.95-1.65,1.86-3.32,2.71-5.03c0.42-0.84,0.73-1.75,1.2-2.56c0.41-0.71,1.02-1.15,1.59-1.72
	c0.37,10.69,0.18,21.38,0.21,32.07c0.01,5.3,0.06,10.6,0.08,15.9c0.02,4.85,0.27,9.8-0.12,14.63c-0.11,1.31-0.4,3.16,0.48,4.29
	c1.08,1.38,3.9,0.73,5.41,0.73c5.28,0.01,10.56,0.01,15.83,0.01c10.72,0.01,21.44,0.01,32.16-0.01c1.17,0,2.34,0.03,3.51-0.01
	c0.66-0.02,1.98-0.07,2.47-0.61c0.32-0.35,0.24-1.44,0.27-1.93c0.08-1.26,0.06-2.52,0.06-3.77c0-5.3-0.02-10.6-0.02-15.91
	c0-10.7-0.01-21.4-0.01-32.1c-0.01-21.39-0.02-42.78-0.02-64.17c-0.01-21.44-0.02-42.88-0.03-64.32
	c-0.01-21.38-0.02-42.75-0.03-64.13c-0.01-21.38-0.02-42.75-0.03-64.13c-0.01-21.43-0.02-42.86-0.03-64.29c0-2.49,0.11-5-0.01-7.49
	c-0.11-2.28-2.28-1.98-4-1.95c-5.32,0.11-10.65-0.01-15.97-0.01c-10.62,0-21.24,0.09-31.86,0.01c-2.45-0.02-4.9-0.18-7.31,0.32
	c-1.03,0.21-0.94,0.87-0.87,1.78c0.08,1.09,0.04,2.18,0.04,3.27c0,5.3,0,10.61,0,15.91c0,10.65,0,21.3,0,31.95
	C2232.76,1051.83,2232.76,1056.99,2232.76,1062.14z M2733.2,1377.67c0-21.94,0-43.88,0-65.82c0-21.94,0-43.88,0-65.83
	c0-21.89,0-43.79-0.01-65.68c0-21.68,0.34-43.44-2.06-65.03c-2.26-20.29-6.64-40.58-14.71-59.4c-7.33-17.07-17.93-32.9-32.06-45.08
	c-14.28-12.31-31.77-20.45-50.04-24.79c-20.36-4.83-41.59-5.48-62.36-3.44c-19.9,1.95-39.74,6.46-57.77,15.28
	c-16.31,7.97-31.25,19.41-41.67,34.42c-2.79,4.02-4.94,8.43-7.67,12.48c-0.92-1.36-1.05-3.05-1.02-4.64
	c0.03-1.76,0.11-3.51,0.11-5.26c-0.01-4.1-0.01-8.2-0.01-12.29c0-7.99-0.23-16.01,0-23.99c0.04-1.25,0.38-3.84-0.78-4.74
	c-1.13-0.87-3.56-0.42-4.87-0.42c-4.08,0.01-8.17,0.01-12.25,0.02c-8.1,0.02-16.2,0.03-24.3,0.05c-4.09,0.01-8.18,0.02-12.27,0.03
	c-0.94,0-1.88,0-2.82,0.01c-0.6,0-1.29-0.04-1.83,0.27c-1.31,0.74-0.85,3.14-0.83,4.37c0.15,7.88-0.01,15.77-0.01,23.65
	c0,16.38,0,32.76,0,49.13c0,16.43,0,32.86,0,49.29c0,16.43,0,32.86,0,49.29c0,16.41,0,32.81,0,49.22c0,16.39,0,32.79,0,49.18
	s0,32.79,0,49.18c0,16.28,0.08,32.55-0.01,48.83c-0.02,3.65-0.25,7.37,0.3,10.99c0.02,0.14,0.04,0.29,0.07,0.43
	c-0.08,0.39,0.07,0.56,0.45,0.52c1.31,0.69,3.01,0.32,4.43,0.31c2.05-0.01,4.1,0,6.16,0.01c4.1,0,8.21,0.01,12.31,0.01
	c8.1,0,16.2,0,24.29-0.01c1.97,0,3.95-0.04,5.92,0c1.63,0.03,3.22,0.14,4.82-0.27c0.51-0.13,1.03-0.24,1.23-0.77
	c0.21-0.55,0.04-1.29,0.02-1.86c-0.08-1.94-0.01-3.9-0.01-5.84c0-8.13,0-16.27,0-24.4c0-16.36,0-32.73,0-49.09
	c0-16.35,0-32.69,0-49.04c0-16.39,0-32.77,0.01-49.16c0-16.08-0.34-32.21,0.2-48.28c0.5-14.97,2.1-30,6.12-44.47
	c3.69-13.31,9.45-26.09,17.81-37.14c7.94-10.5,18.08-19.14,29.81-25.14c12.61-6.44,26.56-9.91,40.6-11.31
	c13.8-1.38,27.98-1.04,41.61,1.62c13.39,2.62,26.43,7.72,37.21,16.21c10.29,8.1,18.06,18.95,23.55,30.77
	c6.11,13.17,9.44,27.47,11.33,41.81c2.12,16.01,2.17,32.09,2.16,48.2c-0.02,16.41,0.01,32.82,0.01,49.24c0,16.42,0,32.84,0,49.26
	c0,16.35,0,32.7,0,49.06c0,16.36,0,32.72,0,49.09c0,2.01-0.05,4.01-0.02,6.02c0.01,0.97,0.05,1.94,0.12,2.9
	c0.03,0.42-0.07,1.55,0.23,1.9c0.32,0.37,1.43,0.25,1.84,0.28c1.03,0.07,2.06,0.11,3.09,0.15c2.03,0.07,4.06,0.12,6.1,0.16
	c8.15,0.18,16.3,0.22,24.44,0.16c3.9-0.03,7.8-0.09,11.7-0.15C2725.61,1378.1,2729.43,1378.21,2733.2,1377.67z M786.09,993.61
	c-0.29,11.03-0.16,22.06-0.16,33.09c0,10.96,0,21.92,0,32.88c0,22.03,0,44.06,0,66.08c0,22.05,0,44.1,0,66.14
	c0,21.83-0.22,43.74,2.35,65.45c2.39,20.16,6.97,40.31,15.3,58.89c7.53,16.79,18.38,32.09,32.55,43.93
	c14.75,12.33,32.65,20.33,51.26,24.82c9.96,2.4,20.19,3.87,30.4,4.68c10.59,0.84,21.25,0.85,31.82-0.19
	c20.06-1.96,39.59-8.02,57.24-17.77c16.42-9.07,30.91-21.46,41.67-36.89c1.39-2,2.72-4.05,3.99-6.13c0.62-1.01,1.17-2.07,1.81-3.07
	c0.5-0.79,1.15-1.15,1.94-1.63c0.35,12.21,0.16,24.43,0.17,36.64c0,3.04-0.01,6.08,0.01,9.12c0.01,1.44,0.01,2.87-0.04,4.3
	c-0.04,1.05-0.19,2.81,0.56,3.69c0.59,0.7,2.01,0.58,2.81,0.59c1.58,0.03,3.17,0,4.75,0.01c3.04,0,6.08,0,9.11,0
	c12.09,0,24.18,0,36.27-0.02c1.31,0,2.62,0.01,3.9-0.28c0.31-0.07,0.95-0.15,1.24-0.33c0.33-0.2,0.28-0.34,0.26-0.75
	c-0.08-2.69-0.05-5.39-0.05-8.08c0-6.04,0-12.07,0-18.11c0-24.28,0-48.56,0-72.84c0-24.49,0-48.98,0-73.47c0-24.35,0-48.71,0-73.06
	c0-24.28,0-48.56-0.01-72.84c0-12.21,0-24.42,0-36.63c0-6.1,0-12.19,0-18.29c0-1.41-0.02-2.82,0.02-4.22
	c0.04-1.36,0.14-2.75-0.11-4.1c-0.14-0.77-0.24-1.39-1.03-1.57c-1.24-0.28-2.58-0.26-3.85-0.24c-11.96,0.14-23.92,0-35.88,0.02
	c-3.04,0-6.07,0.01-9.11,0.01c-2.74,0-5.58-0.35-8.23,0.49c-0.82,0.26-0.64,0.83-0.62,1.66c0.05,1.52,0.01,3.05,0.01,4.57
	c0,3.04,0,6.07,0,9.11c0,24.38,0,48.77,0,73.15c0,24.46,0,48.93,0,73.39c0,12.16,0,24.33,0.01,36.49c0,12.11,0.2,24.23-0.56,36.32
	c-1.36,21.58-6.01,43.32-16.71,62.3c-9.86,17.49-24.88,31.54-43.33,39.6c-20.15,8.8-43.04,11.16-64.74,8.37
	c-11-1.42-22.04-3.95-32.19-8.52c-9.67-4.35-18.4-10.69-25.47-18.6c-13.69-15.32-20.71-35.46-24.18-55.41
	c-4.11-23.6-3.21-47.72-3.22-71.58c-0.01-24.34-0.01-48.68-0.01-73.03c0-24.34,0-48.69,0-73.03c0-6.13,0-12.27,0-18.4
	c0-6.05-0.14-12.12,0.04-18.16c0.08-2.55,0.19-5.23-0.44-7.73c-0.27-1.08-1.12-0.85-2.05-0.82c-1.5,0.04-3,0-4.5,0
	c-5.96,0-11.92,0-17.88,0C809.48,993.61,797.79,993.61,786.09,993.61z M2765.69,905.46c-0.83,3.81-0.18,7.75,0.6,11.51
	c0.79,3.78,1.87,7.47,3.37,11.02c2.73,6.46,6.75,12.33,11.59,17.39c9.19,9.59,21.12,16.48,34.06,19.53
	c13.95,3.28,29.14,2.61,42.63-2.3c12.49-4.55,23.13-13.06,31.28-23.46c8.85-11.29,14.74-24.64,18.4-38.45
	c4.01-15.14,5.14-30.74,5.29-46.35c0.08-8.09,0.02-16.18-0.11-24.27c-0.13-7.87-0.68-15.7-2.55-23.37
	c-3.33-13.67-10.16-26.47-19.57-36.93c-9.29-10.33-21.16-18.04-34.61-21.71c-14.03-3.83-29.14-3.2-42.91,1.4
	c-12.98,4.34-24.56,12.33-33.2,22.95c-8.94,11-14.5,24.61-15.89,38.71c-1.33,13.52,1.35,27.35,8.57,38.95
	c7.1,11.4,18.13,20.33,30.23,25.96c13.35,6.21,28.53,8.6,43.13,6.63c7.34-0.99,14.52-3.13,21.18-6.38c3.34-1.63,6.54-3.54,9.58-5.68
	c1.53-1.08,3.02-2.2,4.42-3.43c0.76-0.67,2.58-3.05,3.81-2.24c0.87,0.57,0.53,2.83,0.53,3.67c0.01,1.89-0.05,3.78-0.17,5.67
	c-0.24,3.93-0.72,7.84-1.38,11.71c-1.27,7.4-3.12,14.73-5.95,21.7c-5.2,12.78-14,25.6-27.11,31.11c-13.5,5.68-29.34,4.98-41.93-2.6
	c-5.65-3.4-10.91-7.9-14.45-13.51c-1.73-2.74-3.04-5.75-3.84-8.89c-0.45-1.75-0.67-3.54-0.9-5.33c-0.1-0.81-0.11-1.78-0.36-2.56
	c-0.21-0.64-0.72-0.62-1.35-0.69c-3.71-0.39-7.42-0.52-11.15-0.5C2773.24,904.72,2769.3,904.62,2765.69,905.46z"/>
<g>
	<path class="st1" d="M1276.37,1375.81c-4.02,0.52-8.2,0.34-12.25,0.4c-4.19,0.06-8.37,0.09-12.56,0.12
		c-8.42,0.05-16.84,0.04-25.25-0.03c-3.94-0.03-7.89-0.25-11.82-0.18c-0.55,0.01-1.6,0.17-2.08-0.18c-0.4-0.29-0.51-1.1-0.59-1.57
		c-0.31-1.85-0.23-3.78-0.21-5.65c0.12-8.38,0.03-16.78,0.03-25.16c0-16.92,0-33.84,0-50.76c0-16.94,0-33.87,0-50.81
		c0-16.92,0-33.85,0-50.77c0-16.97,0-33.94,0-50.9c0-16.93,0-33.86,0-50.79c0-16.93,0-33.86,0-50.79c0-16.97,0-33.94,0-50.9
		c0-16.86,0-33.71,0-50.57c0-17,0-34.01,0-51.01c0-16.9,0-33.8,0-50.71c0-16.9,0-33.8,0-50.71c0-16.98,0-33.96,0-50.94
		c0-16.95,0-33.89,0-50.84c0-16.9,0-33.8,0-50.71c0-16.89,0.04-33.79-0.01-50.68c-0.01-4.22-0.03-8.45-0.02-12.67
		c0.01-2.11,0.02-4.22,0.05-6.34c0.01-0.91,0.01-1.8-0.02-2.71c-0.01-0.49-0.16-1.7,0.22-2.07c0.35-0.35,1.6-0.39,2.06-0.45
		c1.02-0.15,2.06-0.15,3.09-0.13c2.01,0.03,4.01,0.07,6.02,0.06c4.1,0,8.19-0.01,12.29-0.01c8.47,0,16.94,0,25.41,0
		c4.17,0,8.37-0.14,12.54,0.02c0.65,0.02,1.7-0.05,2.3,0.24c0.53,0.25,0.49,1.06,0.58,1.59c0.33,1.96,0.26,3.94,0.23,5.92
		c-0.25,16.86-0.01,33.73-0.01,50.59c0.01,16.89,0,33.78,0,50.66c0,17,0,34.01,0,51.01c0,16.9,0,33.79,0,50.69
		c0,16.89,0,33.78,0,50.67c0,16.93,0,33.86,0,50.79c0,16.84-0.2,33.7,0.01,50.55c0.02,1.86-0.07,3.79,0.08,5.65
		c0.04,0.57-0.02,0.62,0.49,0.79c0.8,0.27,1.81,0.29,2.64,0.36c4.1,0.33,8.28,0.07,12.39,0.06c8.47-0.02,16.95-0.01,25.42,0.01
		c16.92,0.03,33.84,0.03,50.76,0.03c16.91,0,33.82,0,50.73,0c16.89,0,33.78,0,50.66,0c16.92,0,33.83,0,50.75,0
		c16.98,0,33.97,0,50.95-0.01c8.48,0,16.95,0,25.43,0c4.12,0,8.24,0,12.36,0c4.12,0,8.26,0.17,12.37,0.09c1.05-0.02,3.16,0,3.7-1.07
		c0.74-1.46,0.44-3.63,0.39-5.2c-0.13-3.97-0.03-7.96-0.03-11.93c0-8.43,0-16.85,0-25.28c0-16.97,0-33.95,0-50.92
		c0-16.93,0-33.87,0-50.8c0-16.89,0-33.79,0-50.68c0-16.9,0-33.8,0-50.71c0-16.94,0-33.88,0-50.82c0-16.93,0-33.87,0.01-50.8
		c0-4.14,0.01-8.27,0.01-12.41c0-1.93-0.12-3.86-0.06-5.78c0.02-0.8-0.15-2.44,0.74-2.82c0.5-0.21,1.19-0.06,1.72-0.07
		c1.01-0.01,2.01-0.09,3.02-0.12c2.09-0.07,4.19-0.12,6.28-0.16c4.21-0.08,8.43-0.12,12.64-0.14c8.36-0.04,16.73-0.06,25.09,0.04
		c4.07,0.05,8.13,0.25,12.2,0.28c0.62,0,1.34-0.14,1.95,0.04c0.61,0.18,0.64,0.6,0.73,1.2c0.27,1.76,0.28,3.52,0.28,5.3
		c-0.01,16.78-0.01,33.55-0.01,50.33c0,16.93,0,33.87,0,50.8c0,16.99,0,33.99,0,50.98c0,16.9,0,33.8,0,50.71
		c0,16.93,0,33.85,0,50.78c0,17,0,34,0,51c0,16.9,0,33.8,0,50.71c0,16.92,0,33.84,0,50.76c0,16.94,0,33.88,0,50.82
		c0,16.9,0,33.8,0,50.71c0,16.97,0,33.94,0,50.9c0,16.91,0,33.82,0,50.74c0,16.95,0,33.9,0,50.84c0,16.9,0,33.8,0,50.71
		c0,16.9-0.03,33.81,0,50.71c0.01,8.51,0.08,17.01,0.08,25.52c0,4.25-0.01,8.51-0.05,12.76c-0.02,2.13-0.05,4.25-0.08,6.38
		c-0.02,1-0.03,1.99-0.05,2.99c-0.01,0.69,0.16,1.66-0.32,2.25c-0.65,0.78-2.01,0.66-2.91,0.64c-1.72-0.05-3.44-0.02-5.17-0.01
		c-4.17,0.01-8.33,0.03-12.5,0.04c-8.42,0.03-16.84,0.05-25.26,0.07c-4.2,0.01-8.39,0.03-12.59,0.03c-1.52,0-3.84,0.41-5.13-0.58
		c-0.46-0.35-0.43-0.71-0.48-1.28c-0.1-1.02-0.15-2.05-0.16-3.08c-0.1-8.42,0-16.86,0-25.28c0-16.97,0-33.94,0-50.9
		c0-16.94,0-33.88,0-50.81c0-16.91,0-33.81,0-50.72c0-16.89,0-33.79,0-50.68c0-16.93,0-33.86,0-50.8c0-16.98,0-33.96,0-50.94
		c0-16.89,0-33.78-0.01-50.67c0-2.08,0.16-4.19,0.04-6.27c-0.05-0.8-0.06-1.95-0.44-2.67c-0.31-0.59-0.89-0.53-1.52-0.61
		c-3.96-0.54-8.07-0.23-12.06-0.23c-8.51,0-17.01,0-25.52,0c-16.98,0-33.97,0-50.95,0c-16.83,0-33.65,0-50.48,0
		c-16.98,0-33.97,0-50.95,0c-16.92,0-33.85,0-50.77,0c-16.89,0-33.79,0-50.68,0.01c-8.48,0-16.96,0-25.44,0.01
		c-8.33,0-16.68,0.14-25-0.1c-1.42-0.04-3.68-0.16-4.86,0.82c-0.56,0.47-0.4,1.21-0.41,1.87c-0.01,1.02-0.02,2.03-0.03,3.05
		c-0.03,4.23-0.03,8.46-0.03,12.69c0.01,8.47,0.01,16.93,0.01,25.4c0,16.88,0.01,33.76,0.01,50.64c0,16.9,0,33.8,0,50.71
		c0,16.91,0,33.81,0,50.72c0,16.99,0,33.98,0,50.97c0,16.9,0,33.8,0,50.7c0,16.87,0,33.75,0,50.62
		C1276.37,1344.55,1276.37,1360.18,1276.37,1375.81z"/>
	<path class="st1" d="M1786.91,606.52c3.79-0.88,7.93-0.76,11.79-0.76c2.09,0,4.18,0.04,6.27,0.14c0.91,0.04,1.83,0.11,2.74,0.2
		c0.72,0.07,1.86,0,2.54,0.29c0.84,0.35,0.64,1.92,0.71,2.7c0.16,1.79,0.44,3.6,0.85,5.34c0.74,3.14,2,6.15,3.69,8.9
		c3.5,5.71,8.76,10.29,14.44,13.76c6.3,3.85,13.41,6.12,20.8,6.48c7.31,0.35,14.88-0.93,21.62-3.81c6.3-2.69,11.55-7.06,15.93-12.28
		c8.59-10.23,13.49-23.17,16.11-36.14c0.8-3.97,1.36-7.98,1.78-12.01c0.41-3.89,0.84-7.84,0.55-11.76
		c-0.04-0.49-0.04-1.23-0.49-1.55c-0.62-0.44-1.43,0.06-1.9,0.48c-1.33,1.19-2.58,2.39-4.01,3.47c-3.07,2.32-6.28,4.43-9.67,6.24
		c-12.94,6.93-28,9.35-42.52,7.65c-14.23-1.66-28-7.2-39.23-16.14c-10.29-8.19-18.43-19.24-21.87-32.04
		c-3.85-14.31-2.32-29.93,3.2-43.6c5.15-12.77,13.96-24.02,25.22-31.96c11.7-8.26,25.82-12.9,40.12-13.44
		c14.53-0.56,29.01,3.22,41.2,11.19c11.41,7.46,20.67,18.13,27.1,30.11c3.31,6.16,5.86,12.73,7.56,19.52
		c1.9,7.62,2.49,15.4,2.62,23.24c0.14,8.21,0.15,16.42,0.08,24.63c-0.07,7.9-0.29,15.8-1.13,23.66
		c-1.61,15.04-5.22,30.01-11.77,43.69c-5.92,12.37-14.37,23.84-25.49,32.01c-11.25,8.27-24.83,12.61-38.73,13.13
		c-14.4,0.54-28.86-2.8-41.12-10.49c-11.04-6.91-20.39-16.96-25.31-29.12c-1.38-3.41-2.37-6.95-3.1-10.55
		C1786.7,614.04,1786.11,610.22,1786.91,606.52z M1855.66,471.09c-10.01-0.16-19.7,3.83-27.55,9.88
		c-7.33,5.65-13.25,13.18-16.18,22.02c-3.3,9.94-2.87,21.11,1.18,30.77c3.63,8.67,10.24,15.86,18.06,20.97
		c15.01,9.81,35.55,10.44,51.24,1.85c8.03-4.39,15.04-11.24,19.41-19.29c4.95-9.1,6.25-20.02,4.04-30.1
		c-2.09-9.54-7.57-17.91-14.94-24.24c-7.62-6.53-17.06-10.24-26.99-11.39C1861.19,471.23,1858.42,471.09,1855.66,471.09z"/>
</g>
<path class="st0" d="M2222.88,1184.99c0.03,15.53-1.81,31.09-5.87,46.1c-3.85,14.22-9.69,27.89-17.28,40.51
	c-7.32,12.17-16.2,23.46-26.66,33.09c-10.46,9.64-22.48,17.59-35.45,23.4c-6.9,3.09-14.11,5.6-21.49,7.28
	c-7.56,1.73-15.29,2.53-22.97,3.54c-3.9,0.51-7.63-0.01-11.52-0.42c-3.85-0.4-7.69-0.83-11.52-1.4c-7.61-1.13-15.08-3.08-22.31-5.7
	c-13.38-4.86-25.89-12.02-36.93-21c-10.98-8.94-20.58-19.57-28.57-31.25c-8.26-12.08-14.71-25.36-19.32-39.24
	c-4.84-14.53-7.81-29.7-8.66-45c-0.87-15.58,0.37-31.27,3.55-46.54c3.04-14.6,8-28.8,14.93-42.02c6.66-12.69,15.06-24.47,24.89-34.9
	c9.62-10.21,20.74-19.05,33.11-25.7c12.98-6.98,27.26-11.49,41.84-13.59c15.26-2.2,30.93-1.46,45.85,2.49
	c13.91,3.68,27.04,10.02,38.94,18.07c11.69,7.92,22.19,17.57,30.97,28.64c8.97,11.32,16.18,23.99,21.74,37.3
	c5.81,13.91,9.84,28.63,11.64,43.6C2222.67,1169.8,2222.88,1177.4,2222.88,1184.99z"/>
<path class="st0" d="M2834.44,770.02c10.15,0.01,20.45,2.02,29.18,7.39c7.96,4.9,14.71,12.18,18.47,20.78
	c3.97,9.1,4.68,19.69,2.01,29.24c-2.47,8.84-7.95,16.58-14.9,22.49c-7.33,6.24-16.31,10.14-25.88,11.2
	c-9.96,1.11-20.31-0.43-29.26-5.04c-8.21-4.23-15.42-10.8-19.98-18.87c-4.91-8.7-6.63-19.09-4.96-28.93
	c1.6-9.42,6.27-17.86,13.15-24.45c6.75-6.46,15.19-11.41,24.44-13.14C2829.27,770.21,2831.85,769.98,2834.44,770.02z"/>
</svg>
