<svg id="Layer_1" data-name="Layer 1" xmlns="http://www.w3.org/2000/svg" viewBox="0 0 722.56 929.79"><title>H9_MASTER LOGO</title><path d="M1276.37,1375.81a108.77,108.77,0,0,1-12.25.4q-6.27.09-12.56.11-12.63.08-25.25,0c-3.94,0-7.89-.25-11.83-.18-.55,0-1.59.17-2.08-.18s-.5-1.1-.58-1.57a30.5,30.5,0,0,1-.21-5.65c.12-8.39,0-16.78,0-25.16V632.34c0-16.9,0-33.79,0-50.69,0-4.22,0-8.45,0-12.67,0-2.11,0-4.23.05-6.34,0-.9,0-1.8,0-2.7,0-.5-.16-1.7.21-2.08s1.6-.38,2.07-.45a19.85,19.85,0,0,1,3.08-.13c2,0,4,.06,6,.06h37.69c4.18,0,8.38-.14,12.55,0a6.51,6.51,0,0,1,2.29.24c.54.25.5,1.06.59,1.59a32.56,32.56,0,0,1,.23,5.92c-.25,16.86,0,33.74,0,50.6s0,33.77,0,50.66V869.53c0,16.85-.19,33.7,0,50.55,0,1.86-.07,3.79.08,5.65,0,.57,0,.61.48.79a11.27,11.27,0,0,0,2.65.35c4.1.33,8.28.08,12.39.06q12.7,0,25.42,0,25.38.06,50.75,0H1609c4.11,0,8.25.17,12.37.09,1,0,3.16,0,3.7-1.07.74-1.46.44-3.63.39-5.2-.13-4,0-7.95,0-11.93V731.16q0-25.35,0-50.7V629.63q0-25.39,0-50.8,0-6.2,0-12.41c0-1.92-.12-3.85-.06-5.78,0-.8-.15-2.44.74-2.82a5,5,0,0,1,1.72-.07c1,0,2-.09,3-.12,2.1-.07,4.19-.12,6.29-.16q6.32-.12,12.64-.14c8.36,0,16.73-.06,25.09,0,4.06,0,8.13.25,12.2.28a7.48,7.48,0,0,1,1.95,0c.61.18.64.61.73,1.2a36.07,36.07,0,0,1,.28,5.3q0,25.15,0,50.32v558.9q0,25.42,0,50.85V1275q0,25.36,0,50.72c0,8.51.07,17,.08,25.52q0,6.38-.05,12.76c0,2.13,0,4.25-.08,6.38,0,1,0,2,0,3,0,.69.16,1.66-.33,2.24-.64.78-2,.67-2.9.64-1.72,0-3.45,0-5.17,0l-12.5,0-25.26.07c-4.2,0-8.39,0-12.59,0-1.52,0-3.83.41-5.12-.57-.47-.36-.43-.72-.49-1.29-.1-1-.14-2-.16-3.08-.1-8.42,0-16.85,0-25.28V1092.21q0-25.47,0-50.94V990.6c0-2.08.16-4.18,0-6.27a7.22,7.22,0,0,0-.44-2.66c-.31-.59-.89-.53-1.52-.62-4-.54-8.07-.23-12.06-.23H1306.69c-8.34,0-16.68.14-25-.1-1.42,0-3.68-.16-4.86.82-.57.47-.4,1.22-.41,1.88l0,3c0,4.23,0,8.46,0,12.69q0,12.71,0,25.4,0,25.32,0,50.64v300.6Z" transform="translate(-1211.58 -446.63)"/><path d="M1786.91,606.52c3.78-.88,7.92-.75,11.79-.75,2.09,0,4.18,0,6.27.14.91,0,1.83.11,2.74.2a9.81,9.81,0,0,1,2.54.29c.84.35.63,1.92.7,2.69a38.3,38.3,0,0,0,.85,5.34,30.27,30.27,0,0,0,3.69,8.91,43.11,43.11,0,0,0,14.44,13.76,43.83,43.83,0,0,0,20.79,6.47,49.45,49.45,0,0,0,21.62-3.81,43.06,43.06,0,0,0,15.93-12.28c8.59-10.23,13.49-23.17,16.11-36.14.8-4,1.36-8,1.78-12a66.12,66.12,0,0,0,.55-11.76c0-.49,0-1.23-.49-1.56-.62-.44-1.43.07-1.9.49-1.33,1.19-2.58,2.38-4,3.47a75.55,75.55,0,0,1-9.67,6.24,72.57,72.57,0,0,1-42.52,7.65,77.61,77.61,0,0,1-39.23-16.13c-10.29-8.2-18.43-19.24-21.87-32-3.84-14.31-2.32-29.93,3.2-43.6a72.45,72.45,0,0,1,25.22-32,74.75,74.75,0,0,1,40.11-13.44,70.34,70.34,0,0,1,41.2,11.18A82.51,82.51,0,0,1,1923.84,488a84.81,84.81,0,0,1,7.56,19.52,102.54,102.54,0,0,1,2.62,23.23q.21,12.32.08,24.63c-.07,7.9-.29,15.8-1.13,23.66-1.62,15-5.22,30-11.78,43.69-5.92,12.37-14.37,23.84-25.48,32A69.6,69.6,0,0,1,1857,667.86c-14.4.53-28.85-2.81-41.12-10.49-11-6.91-20.39-17-25.31-29.12a60.6,60.6,0,0,1-3.1-10.56C1786.7,614,1786.11,610.22,1786.91,606.52Zm68.75-135.43c-10-.16-19.7,3.83-27.55,9.87a46.77,46.77,0,0,0-16.19,22,44.35,44.35,0,0,0,1.18,30.77,47.51,47.51,0,0,0,18.05,21c15,9.82,35.55,10.45,51.25,1.85a49.33,49.33,0,0,0,19.41-19.29,44,44,0,0,0,4-30.1,44.86,44.86,0,0,0-14.94-24.24,50,50,0,0,0-27-11.4A73.67,73.67,0,0,0,1855.66,471.09Z" transform="translate(-1211.58 -446.63)"/></svg>