<svg id="Layer_1" data-name="Layer 1" xmlns="http://www.w3.org/2000/svg" viewBox="0 0 2745.46 830.9"><title>human9_black</title><path d="M232.26,1377.74a108.77,108.77,0,0,1-12.25.4q-6.28.09-12.56.12-12.63.08-25.25,0c-3.94,0-7.89-.25-11.83-.18-.55,0-1.59.17-2.08-.18s-.5-1.1-.58-1.58a30.36,30.36,0,0,1-.21-5.64c.12-8.39,0-16.78,0-25.17V634.27c0-16.89,0-33.79,0-50.68,0-4.22,0-8.45,0-12.67q0-3.18.05-6.34c0-.91,0-1.8,0-2.71,0-.49-.16-1.69.21-2.07s1.6-.39,2.06-.45a18.76,18.76,0,0,1,3.09-.13c2,0,4,.06,6,.06h37.69c4.17,0,8.38-.14,12.54,0a6.54,6.54,0,0,1,2.3.24c.54.25.5,1.05.59,1.59a32.52,32.52,0,0,1,.23,5.92c-.25,16.86,0,33.73,0,50.59s0,33.78,0,50.67V871.47c0,16.84-.19,33.7,0,50.54,0,1.87-.07,3.8.08,5.65,0,.57,0,.62.48.79a11.75,11.75,0,0,0,2.65.36c4.09.33,8.28.07,12.39.06q12.7,0,25.42,0,25.38,0,50.75,0H564.92c4.12,0,8.26.16,12.37.08,1.05,0,3.17,0,3.71-1.07.74-1.45.44-3.62.39-5.19-.13-4,0-8,0-11.93V682.39q0-25.41,0-50.82v-50.8c0-4.14,0-8.27,0-12.41,0-1.93-.12-3.86-.07-5.78,0-.81-.14-2.44.75-2.82a5,5,0,0,1,1.72-.07c1,0,2-.09,3-.12,2.09-.07,4.19-.12,6.28-.16,4.22-.09,8.43-.13,12.65-.15,8.36,0,16.72,0,25.09,0,4.06.05,8.13.25,12.2.28a7.07,7.07,0,0,1,2,0c.61.18.64.6.73,1.2a36.07,36.07,0,0,1,.28,5.3q0,25.15,0,50.32V1023q0,25.37,0,50.71V1276.9q0,25.36,0,50.72c0,8.5.08,17,.09,25.52q0,6.38,0,12.76c0,2.12,0,4.25-.08,6.38,0,1,0,2,0,3,0,.7.16,1.67-.33,2.25-.64.78-2,.66-2.9.64-1.72-.05-3.45,0-5.17,0l-12.5,0-25.26.08c-4.2,0-8.39,0-12.59,0-1.52,0-3.83.41-5.13-.58-.46-.35-.43-.71-.48-1.28-.1-1-.15-2.05-.16-3.08-.1-8.42,0-16.86,0-25.28V1094.15q0-25.47,0-50.94V992.54c0-2.08.16-4.19,0-6.27a7.06,7.06,0,0,0-.43-2.67c-.32-.58-.89-.52-1.52-.61-4-.54-8.07-.23-12.06-.23H262.57c-8.33,0-16.67.14-25-.1-1.42,0-3.68-.16-4.86.82-.57.47-.4,1.21-.41,1.87l0,3c0,4.23,0,8.46,0,12.69q0,12.71,0,25.4,0,25.32,0,50.64v300.59Z" transform="translate(-167.47 -559.21)"/><path d="M1541.66,1066c2.74-6.16,5.39-12.37,8.49-18.36a123.45,123.45,0,0,1,10.51-16.87,111.42,111.42,0,0,1,26.34-25.48,123,123,0,0,1,34.35-16.15,179.88,179.88,0,0,1,39.75-6.94,237,237,0,0,1,40.92.61,159.15,159.15,0,0,1,38.5,8.61,112.91,112.91,0,0,1,32.56,18.34,108.75,108.75,0,0,1,24,27.84,145.56,145.56,0,0,1,15,35,232,232,0,0,1,7.48,39.91,410.36,410.36,0,0,1,1.88,41.92c.06,14.13,0,28.25,0,42.37v84.79q0,21.11,0,42.21c0,14.16-.09,28.32,0,42.48a86,86,0,0,1-.11,10.28c0,.34,0,.94-.22,1.21s-1,.31-1.34.37a24.14,24.14,0,0,1-4.33.17c-6.94-.25-13.91-.06-20.85-.06l-21.14,0h-5.18a42.69,42.69,0,0,1-4.38,0c-1-.11-2.31-.23-2.41-1.36-.14-1.65-.15-3.33-.17-5-.12-14.05,0-28.11,0-42.16V1203c0-14.12.08-28.25.11-42.37,0-13.82-.12-27.68-1.55-41.44-1.36-13-3.86-26-8.61-38.24-4.1-10.56-10.08-20.5-18.25-28.41-8.61-8.34-19.41-13.85-30.86-17.14-12.5-3.58-25.7-4.84-38.66-4.69a149.26,149.26,0,0,0-39.22,5.34,93.26,93.26,0,0,0-33,16.64,86.82,86.82,0,0,0-22.47,27.82,123.69,123.69,0,0,0-11.63,36.37c-2.26,13.58-2.71,27.38-2.73,41.13,0,14.1,0,28.21,0,42.32v174.55c0,1.07.49,2.72-.82,3-3.07.71-6.32.39-9.45.39l-21.16,0h-21c-1.53,0-3.08.13-4.62.06a6.23,6.23,0,0,1-2.1-.32c-.52-.23-.49-.49-.6-1-.65-3.35-.4-6.86-.4-10.26q0-21.18,0-42.36V1197.1c0-14,.16-28,.07-42-.08-13.7-.38-27.42-2.21-41-1.7-12.6-4.6-25.19-9.75-36.85-4.76-10.77-11.58-20.68-20.78-28.13s-20-12.15-31.37-14.87a140.53,140.53,0,0,0-40-3.25c-13,.68-26.07,2.72-38.41,7.06a93.63,93.63,0,0,0-31.51,18.34,91.77,91.77,0,0,0-21.57,29.39,128.85,128.85,0,0,0-10.68,37.34c-1.88,13.6-1.92,27.31-1.95,41,0,14.06.06,28.12.06,42.18v127.3q0,10.56,0,21.12c0,3.57,0,7.13,0,10.7,0,3.27-.2,6.59,0,9.85,0,1,.16,2.16-.88,2.69a5.78,5.78,0,0,1-2.89.21c-3.09-.22-6.24,0-9.33,0-7,0-14,0-21,.09s-14,.24-21.08.09c-1.19,0-3.51.26-4.4-.75-.69-.79-.5-2.76-.52-3.75-.07-3.42-.09-6.83-.11-10.25q-.13-21.06-.13-42.14t0-42.19q0-21.06,0-42.11t0-42.24q0-21.29.05-42.57,0-21,.08-42.09t.11-42.14q.08-21,.17-42.1.06-10.62.15-21.22c0-1.73,0-3.46,0-5.19a37.79,37.79,0,0,1,0-4.76c.07-.5,0-.78.42-1a4.35,4.35,0,0,1,1.39-.28,36.85,36.85,0,0,1,4.93-.07q20.82,0,41.62,0c1.73,0,3.45,0,5.18,0a19,19,0,0,1,4.77.19c1.35.34,1.44,1.93,1.46,3.11,0,1.74-.07,3.48-.1,5.22-.08,7,0,13.9,0,20.85s-.11,14,0,21c0,.84,0,1.68.08,2.52,0,.31-.13,1.33.14,1.58.76.71,1.68-1,1.88-1.51a70.06,70.06,0,0,1,4-7.95,94.22,94.22,0,0,1,24.24-27,130.85,130.85,0,0,1,32.59-18.21,169.93,169.93,0,0,1,38.13-9.69,196.09,196.09,0,0,1,40.88-1.35,153,153,0,0,1,39.13,7.57,121,121,0,0,1,33.29,17.46,110.72,110.72,0,0,1,25.2,26.58C1532.51,1043.75,1537.27,1054.84,1541.66,1066Z" transform="translate(-167.47 -559.21)"/><path d="M2232.76,1062.14q0-32.12,0-64.24c0-.87,0-1.74-.06-2.62s-.23-1.37.64-1.54a27.47,27.47,0,0,1,6.21-.35c5.18.14,10.38,0,15.56,0q15.93,0,31.86,0c1.45,0,5-.64,5.68,1.18a10.4,10.4,0,0,1,.09,3.25v3.89q0,8,0,15.94,0,16.08,0,32.14l0,63.77,0,64.32q0,32,0,63.94l0,64.13c0,21.35-.19,42.72,0,64.07,0,1.31,0,2.61,0,3.92,0,.57,0,1.14-.07,1.71a5,5,0,0,1-.13,1.72c-.34.65-1.83.7-2.46.76-1.22.12-2.47.07-3.7.07h-15.82l-32.13,0c-1.43,0-4.12.58-5.24-.54s-.77-3.45-.65-5c.19-2.33.06-4.72.06-7.06,0-2.64,0-5.29,0-7.93q0-15.81,0-31.62c0-5.18,0-10.35-.2-15.52a8.5,8.5,0,0,0-1.69,1.9c-.41.77-.71,1.6-1.1,2.38-.9,1.82-1.88,3.6-2.9,5.36a101.68,101.68,0,0,1-6.58,9.85,126.55,126.55,0,0,1-15.62,17,157,157,0,0,1-37.23,25.37,173.9,173.9,0,0,1-44.86,14.53,204.06,204.06,0,0,1-96.76-6.63,167.32,167.32,0,0,1-41.69-20.6,156.71,156.71,0,0,1-33.2-30.76,180,180,0,0,1-24.07-39.57,218.59,218.59,0,0,1-14.37-45.43,285.24,285.24,0,0,1-5.52-49.27,317.43,317.43,0,0,1,2.46-50.26,234,234,0,0,1,11.1-47.3,188.92,188.92,0,0,1,20.39-41.6,161.73,161.73,0,0,1,29.56-33.58,158.79,158.79,0,0,1,38.37-24.33,184.13,184.13,0,0,1,45.67-13.43,207.78,207.78,0,0,1,49.26-2,179.56,179.56,0,0,1,47.3,9.87,156.82,156.82,0,0,1,40.1,21.51c11.79,8.75,22.53,19.33,30.65,31.62,2.14,3.24,4.07,6.61,6,10,.91,1.57,1.86,3.13,2.71,4.74.29.56.54,1.7,1.07,2.09C2231.93,1062.28,2232.28,1062.19,2232.76,1062.14ZM2222.88,1185a188.55,188.55,0,0,0-1.25-23.76,159.87,159.87,0,0,0-4.6-22.74,167.77,167.77,0,0,0-17.35-40.7,142.71,142.71,0,0,0-26.9-33.09,138.68,138.68,0,0,0-35.36-23.27,116.06,116.06,0,0,0-43.09-10.43,125.57,125.57,0,0,0-45.11,6.75,122.7,122.7,0,0,0-37.26,20.49,149,149,0,0,0-28.89,31.23,156.82,156.82,0,0,0-19.66,38.65,175.15,175.15,0,0,0-8.93,45,172.38,172.38,0,0,0,3.1,46.72,169.45,169.45,0,0,0,14.55,42.07,152.86,152.86,0,0,0,24.68,35.29,135.41,135.41,0,0,0,33,26,120.47,120.47,0,0,0,41.18,14c3.95.56,7.92,1,11.89,1.4,2,.21,4.08.52,6.12.64a28.09,28.09,0,0,0,5.56-.54c3.83-.53,7.68-.84,11.5-1.41s7.78-1.36,11.61-2.32a125.11,125.11,0,0,0,39-17.45,137.37,137.37,0,0,0,31.21-28.89,159.73,159.73,0,0,0,22-37.07,162.73,162.73,0,0,0,11.6-43.77A185.39,185.39,0,0,0,2222.88,1185Z" transform="translate(-167.47 -559.21)"/><path d="M2733.2,1377.67c-5.93.85-12.1.51-18.08.57s-12.18.06-18.27,0-12.07-.08-18.09-.31l-2-.1a6.84,6.84,0,0,1-1.92-.16c-.65-.25-.49-1.16-.51-1.81-.06-2.68-.12-5.34-.08-8,.17-12.21,0-24.43,0-36.64V1220.75q0-18.27,0-36.56c0-12.3.17-24.62-.19-36.92-.61-21.46-3.29-43.59-11.62-63.55a88.29,88.29,0,0,0-16.19-25.91,78,78,0,0,0-22.69-17A97.79,97.79,0,0,0,2593,1032a147.6,147.6,0,0,0-35-.4c-20.67,2.15-40.92,8.92-57,22.46-15.9,13.41-25.76,32.35-31.13,52.2a170.84,170.84,0,0,0-5.33,32.56c-.85,12-.69,24.1-.7,36.15q0,36.81,0,73.62V1359c0,5.9-.14,11.82,0,17.72,0,.92-.11.9-1,1.15a14.19,14.19,0,0,1-4.06.46c-2.95,0-5.91,0-8.86,0h-41c-1.27,0-3,.29-4.22-.31-.77-.38-.63-1.66-.7-2.42a44.8,44.8,0,0,1-.12-4.49c0-6.09,0-12.18,0-18.26V1205.11q0-36.72,0-73.43v-128.5c0-1.41,0-2.82,0-4.23a25,25,0,0,1,.11-4.06c.19-1,1.15-1.33,2.07-1.38,1.28-.07,2.6.06,3.89,0l37-.08c3,0,6,0,9-.09,1.4,0,2.81,0,4.22,0,1.08,0,2.7-.1,3.26,1.06A8,8,0,0,1,2464,998c0,1.52-.06,3,0,4.55,0,3,0,6,0,9q0,8.73,0,17.45c0,2.87,0,5.74,0,8.61,0,2.38-.51,5.06.91,7.15,2.83-4.2,5.06-8.77,8-12.92a92.37,92.37,0,0,1,9.56-11.51,109.2,109.2,0,0,1,23.11-17.81c16.89-9.89,35.8-15.62,55.07-18.54a204.81,204.81,0,0,1,62.67-.14c18.86,3,37.37,9.56,53,20.65,15,10.62,26.88,25,35.35,41.27,9.17,17.57,14.58,37,17.71,56.48,3.41,21.2,3.81,42.68,3.88,64.1.07,21.85,0,43.71,0,65.57v145.73Z" transform="translate(-167.47 -559.21)"/><path d="M786.09,993.61h54.66c1.25,0,2.5,0,3.75,0,.2,0,.68-.12.84,0s.21.82.26,1.1a42.73,42.73,0,0,1,.44,8.61c-.17,12.22,0,24.46,0,36.69v110.3q0,18.32,0,36.64c0,12.19-.23,24.39.09,36.58.58,21.76,3.34,44,12.12,64.06,7.78,17.8,20.81,33.09,38.41,41.72,10.1,5,21.18,7.66,32.26,9.27a130.35,130.35,0,0,0,35.62.29c20.53-2.68,40.7-10.2,56.1-24.36,15.24-14,25.07-33,30.2-52.93,5.82-22.6,5.61-45.93,5.61-69.09q0-36.71,0-73.42t0-73.45v-45.51c0-1.24-.09-2.47-.12-3.7a9.4,9.4,0,0,1,.06-1.59c.07-.44.08-.56.3-.76a5.62,5.62,0,0,1,2.81-.61c1.59-.08,3.19,0,4.78,0h9.11q18.21,0,36.42,0a26.35,26.35,0,0,1,4,.21c1.25.18,1.33,1.07,1.44,2.25.28,3,0,6.05,0,9v18.3q0,36.54,0,73.07v146.29q0,36.72,0,73.45v54.53c0,1.44,0,2.87,0,4.3,0,.9.5,2.36-.48,2.85a7.89,7.89,0,0,1-3.36.57c-1.49,0-3,0-4.47,0q-18.32,0-36.62,0c-3,0-5.91,0-8.87,0-1.1,0-2.22,0-3.32-.06s-1.42-.59-1.62-1.64a15.84,15.84,0,0,1-.09-3.51c0-1.58,0-3.18,0-4.76q0-4.56,0-9.13c0-11.75.17-23.51-.17-35.27a5,5,0,0,0-1.92,1.6c-.7,1.11-1.32,2.28-2,3.4q-2,3.33-4.3,6.53a115.62,115.62,0,0,1-9.69,11.94,122.08,122.08,0,0,1-22.54,18.9,145.59,145.59,0,0,1-55.08,21.58c-20.18,3.41-41.19,2.76-61.34-.58-19.19-3.18-38.07-9.5-54.27-20.48a116.14,116.14,0,0,1-36.29-40.15c-9.58-17.33-15.24-36.58-18.58-56-3.65-21.28-4.31-42.8-4.3-64.34V1009.49C785.93,1004.2,786,998.9,786.09,993.61Z" transform="translate(-167.47 -559.21)"/><path d="M2765.69,905.46c3.79-.88,7.93-.76,11.79-.76,2.09,0,4.19,0,6.28.15.91,0,1.82.1,2.73.19a10.26,10.26,0,0,1,2.54.29c.84.35.64,1.92.71,2.7a37.1,37.1,0,0,0,.85,5.34,30.3,30.3,0,0,0,3.68,8.9A43.11,43.11,0,0,0,2808.71,936a44,44,0,0,0,20.8,6.48,49.52,49.52,0,0,0,21.61-3.81,43.19,43.19,0,0,0,15.94-12.28c8.58-10.23,13.49-23.17,16.1-36.14.8-4,1.36-8,1.79-12a68,68,0,0,0,.55-11.76c0-.49,0-1.23-.49-1.55-.62-.44-1.44.06-1.91.48-1.33,1.19-2.58,2.39-4,3.47a73.88,73.88,0,0,1-9.67,6.25,72.7,72.7,0,0,1-42.52,7.65,77.66,77.66,0,0,1-39.23-16.14c-10.29-8.19-18.42-19.23-21.86-32-3.85-14.31-2.32-29.93,3.19-43.6a72.54,72.54,0,0,1,25.22-32,74.88,74.88,0,0,1,40.12-13.45,70.34,70.34,0,0,1,41.19,11.19,82.51,82.51,0,0,1,27.1,30.11,85,85,0,0,1,7.55,19.52,102.57,102.57,0,0,1,2.63,23.24q.2,12.3.08,24.63c-.08,7.9-.29,15.8-1.14,23.66-1.61,15-5.22,30-11.77,43.69-5.92,12.36-14.37,23.83-25.49,32a69.51,69.51,0,0,1-38.73,13.12c-14.4.54-28.86-2.8-41.12-10.48-11-6.92-20.39-17-25.31-29.13a59.64,59.64,0,0,1-3.1-10.55C2765.48,913,2764.89,909.15,2765.69,905.46ZM2834.44,770c-10-.16-19.7,3.83-27.55,9.88a46.77,46.77,0,0,0-16.18,22,44.41,44.41,0,0,0,1.17,30.77,47.52,47.52,0,0,0,18.06,21c15,9.81,35.55,10.44,51.24,1.85a49.42,49.42,0,0,0,19.42-19.29,44,44,0,0,0,4-30.11,44.9,44.9,0,0,0-14.94-24.24,49.93,49.93,0,0,0-27-11.39A71.68,71.68,0,0,0,2834.44,770Z" transform="translate(-167.47 -559.21)"/></svg>