<?xml version="1.0" encoding="utf-8"?>
<!-- Generator: Adobe Illustrator 23.0.2, SVG Export Plug-In . SVG Version: 6.00 Build 0)  -->
<svg version="1.1" id="Layer_1" xmlns="http://www.w3.org/2000/svg" xmlns:xlink="http://www.w3.org/1999/xlink" x="0px" y="0px"
	 viewBox="0 0 3000 2000" style="enable-background:new 0 0 3000 2000;" xml:space="preserve">
<style type="text/css">
	.st0{display:none;}
</style>
<g>
	<g>
		<path class="st0" d="M77.2,1609.99c0-16.56,0-33.12,0-49.68c0-16.63,0-33.25,0-49.88c0-16.56,0-33.12,0-49.68
			c0-16.56,0-33.12,0-49.68c0-16.7,0-33.4,0-50.1c0-16.56,0-33.12,0-49.68c0-16.56,0-33.12,0-49.68s0-33.12,0-49.68
			c0-16.63,0-33.25,0-49.88c0-16.56,0-33.12,0-49.68s0-33.12,0-49.68c0-16.63,0-33.25,0-49.88c0-16.56,0-33.12,0-49.68
			c0-16.63,0-33.27,0-49.9c0-16.56,0-33.12,0-49.68c0-16.63,0-33.25,0-49.88c0-16.56,0-33.12,0-49.68c0-16.56,0-33.12,0-49.68
			c0-16.63,0-33.25,0-49.88c0-16.56,0-33.12,0-49.68s0-33.12,0-49.68s0-33.12,0-49.68c0-16.63,0-33.25,0-49.88
			c0-16.56,0-33.12,0-49.67c0-8.24,0-16.48,0-24.73c0-1.94,0-3.88,0-5.82c0-0.37-0.2-1.45,0.02-1.79c0.24-0.39,1-0.22,1.39-0.19
			c3.86,0.27,7.81,0.03,11.68,0.03c16.62,0,33.24,0,49.86,0c16.56,0,33.12,0,49.69,0s33.12,0,49.69,0s33.12,0,49.69,0
			s33.12,0,49.69,0c16.63,0,33.26,0,49.88,0c16.56,0,33.12,0,49.69,0c16.63,0,33.26,0,49.88,0c16.63,0,33.27,0,49.9,0
			c16.57,0,33.13,0,49.7,0c16.56,0,33.12,0,49.69,0c16.56,0,33.12,0,49.69,0c16.63,0,33.26,0,49.88,0c16.56,0,33.12,0,49.69,0
			c16.56,0,33.12,0,49.69,0c16.63,0,33.26,0,49.88,0c16.56,0,33.12,0,49.69,0c16.56,0,33.12,0,49.69,0c16.56,0,33.12,0,49.69,0
			c16.7,0,33.4,0,50.11,0c16.56,0,33.13,0,49.69,0c16.56,0,33.12,0,49.69,0c16.63,0,33.26,0,49.88,0c16.56,0,33.12,0,49.69,0
			s33.12,0,49.69,0c16.56,0,33.12,0,49.69,0c16.63,0,33.26,0,49.88,0c16.56,0,33.12,0,49.69,0c16.64,0,33.27,0,49.91,0
			c16.63,0,33.26,0,49.89,0c16.56,0,33.12,0,49.69,0s33.12,0,49.69,0c16.56,0,33.12,0,49.69,0c16.63,0,33.26,0,49.88,0
			c16.56,0,33.12,0,49.69,0c16.56,0,33.12,0,49.69,0c16.63,0,33.26,0,49.88,0c16.56,0,33.12,0,49.69,0c16.64,0,33.27,0,49.91,0
			c16.56,0,33.13,0,49.69,0c16.56,0,33.12,0,49.69,0c16.63,0,33.26,0,49.88,0c16.56,0,33.12,0,49.69,0c16.63,0,33.26,0,49.88,0
			c16.56,0,33.12,0,49.69,0c16.56,0,33.12,0,49.69,0s33.12,0,49.69,0s33.12,0,49.69,0c16.7,0,33.41,0,50.11,0
			c16.56,0,33.12,0,49.69,0c16.56,0,33.12,0,49.69,0c16.63,0,33.26,0,49.88,0c16.56,0,33.12,0,49.69,0s33.12,0,49.69,0
			s33.12,0,49.69,0c16.63,0,33.26,0,49.88,0c15.27,0,30.55,0,45.82,0c0,16.56,0,33.12,0,49.68c0,16.63,0,33.25,0,49.88
			c0,16.56,0,33.12,0,49.68c0,16.56,0,33.12,0,49.68c0,16.7,0,33.4,0,50.1c0,16.56,0,33.12,0,49.68s0,33.12,0,49.68s0,33.12,0,49.68
			c0,16.63,0,33.25,0,49.88c0,16.56,0,33.12,0,49.68c0,16.56,0,33.12,0,49.68c0,16.63,0,33.25,0,49.88c0,16.56,0,33.12,0,49.68
			c0,16.63,0,33.27,0,49.9c0,16.56,0,33.12,0,49.68c0,16.63,0,33.25,0,49.88c0,16.56,0,33.12,0,49.68s0,33.12,0,49.68
			c0,16.63,0,33.25,0,49.88c0,16.56,0,33.12,0,49.68s0,33.12,0,49.68c0,16.56,0,33.12,0,49.68c0,16.63,0,33.25,0,49.88
			c0,16.56,0,33.12,0,49.67c0,8.24,0,16.48,0,24.73c0,1.94,0,3.88,0,5.82c0,0.37,0.2,1.45-0.02,1.79c-0.24,0.39-1,0.22-1.39,0.19
			c-3.86-0.27-7.81-0.03-11.68-0.03c-16.62,0-33.24,0-49.85,0c-16.56,0-33.12,0-49.69,0s-33.12,0-49.69,0s-33.12,0-49.69,0
			s-33.12,0-49.69,0c-16.63,0-33.26,0-49.88,0c-16.56,0-33.12,0-49.69,0c-16.63,0-33.26,0-49.88,0c-16.63,0-33.27,0-49.9,0
			c-16.57,0-33.13,0-49.7,0c-16.56,0-33.12,0-49.69,0s-33.12,0-49.69,0c-16.63,0-33.26,0-49.88,0c-16.56,0-33.12,0-49.69,0
			c-16.56,0-33.12,0-49.69,0c-16.63,0-33.26,0-49.88,0c-16.56,0-33.12,0-49.69,0c-16.56,0-33.12,0-49.69,0s-33.12,0-49.69,0
			c-16.7,0-33.4,0-50.11,0c-16.56,0-33.13,0-49.69,0c-16.56,0-33.12,0-49.69,0c-16.63,0-33.26,0-49.88,0c-16.56,0-33.12,0-49.69,0
			s-33.12,0-49.69,0c-16.56,0-33.12,0-49.69,0c-16.63,0-33.26,0-49.88,0c-16.56,0-33.12,0-49.69,0c-16.64,0-33.27,0-49.91,0
			c-16.63,0-33.26,0-49.89,0c-16.56,0-33.12,0-49.69,0s-33.12,0-49.69,0c-16.56,0-33.12,0-49.69,0c-16.63,0-33.26,0-49.88,0
			c-16.56,0-33.12,0-49.69,0c-16.56,0-33.12,0-49.69,0c-16.63,0-33.26,0-49.88,0c-16.56,0-33.12,0-49.69,0c-16.64,0-33.27,0-49.91,0
			c-16.56,0-33.13,0-49.69,0c-16.56,0-33.12,0-49.69,0c-16.63,0-33.26,0-49.88,0c-16.56,0-33.12,0-49.69,0c-16.63,0-33.26,0-49.88,0
			c-16.56,0-33.12,0-49.69,0c-16.56,0-33.12,0-49.69,0c-16.56,0-33.12,0-49.69,0c-16.56,0-33.12,0-49.69,0c-16.7,0-33.41,0-50.11,0
			c-16.56,0-33.12,0-49.69,0c-16.56,0-33.12,0-49.69,0c-16.63,0-33.26,0-49.88,0c-16.56,0-33.12,0-49.69,0s-33.12,0-49.69,0
			s-33.12,0-49.69,0c-16.63,0-33.26,0-49.88,0C107.74,1609.99,92.47,1609.99,77.2,1609.99z M232.26,1377.74c0-17,0-34,0-50.99
			c0-16.88,0-33.75,0-50.63c0-16.95,0-33.9,0-50.85c0-16.95,0-33.89,0-50.84c0-16.9,0-33.8,0-50.69c0-16.95,0-33.89,0-50.84
			c0-16.96-0.02-33.91-0.01-50.87c0-8.32,0.01-16.64,0-24.96c0-4.08-0.02-8.17,0.06-12.25c0.01-0.53-0.05-0.93,0.38-1.28
			c0.65-0.54,1.87-0.68,2.67-0.76c1.98-0.2,4.01,0.05,5.99,0.04c16.83-0.01,33.66-0.02,50.5-0.03c16.91,0,33.83-0.01,50.74-0.01
			c16.96,0,33.92,0,50.88,0c16.92,0,33.85,0,50.77,0c16.92,0,33.84,0,50.76,0c16.88,0,33.77,0.01,50.65,0.05
			c8.47,0.02,16.94,0.03,25.41-0.03c2.06-0.01,4.13-0.1,6.19-0.02c1.02,0.04,3.11-0.25,3.71,0.77c0.64,1.08,0.47,3.08,0.46,4.25
			c-0.02,2.05-0.09,4.11-0.09,6.16c-0.01,16.82,0.04,33.63,0.04,50.45c0,16.93,0,33.87,0,50.8c0,16.96,0,33.92,0,50.88
			c0,16.89,0,33.79,0,50.68c0,16.9,0,33.8,0,50.71c0,17.01,0,34.02,0,51.02c0,16.89,0,33.78,0,50.67c0,8.38-0.04,16.76,0.01,25.14
			c0.01,1.03-0.32,2.83,0.66,3.53c0.88,0.63,2.31,0.5,3.33,0.47c3.72-0.1,7.44-0.03,11.16-0.05c8.49-0.05,16.97-0.05,25.46-0.08
			c4.23-0.01,8.46-0.03,12.69-0.04c2.04-0.01,4.09-0.01,6.13-0.02c1.36,0,3.73,0.53,4.75-0.65c0.48-0.56,0.31-1.52,0.32-2.2
			c0.03-1.12,0.05-2.24,0.07-3.36c0.04-2.11,0.06-4.21,0.06-6.32c0.02-4.15-0.01-8.29-0.03-12.44c-0.04-8.49-0.02-16.98-0.02-25.47
			c0-16.91,0-33.82,0-50.73c0-17.01,0-34.03,0-51.04c0-16.91,0-33.83,0-50.74c0-16.9,0-33.8,0-50.71c0-17.01,0-34.01,0-51.02
			c0-16.92,0-33.84,0-50.76c0-16.9,0-33.8,0-50.71c0-17,0-34,0-51c0-16.93,0-33.85,0-50.78c0-16.9,0-33.8,0-50.71s0-33.8,0-50.71
			c0-16.92,0-33.85,0-50.77c0-17,0-34,0-51.01c0-16.9,0-33.8,0-50.71c0-16.85-0.18-33.7,0.02-50.55c0.02-1.72,0.16-3.85-0.42-5.5
			c-0.28-0.8-1.27-0.59-2-0.64c-1.05-0.07-2.1-0.1-3.16-0.13c-4.21-0.11-8.43-0.17-12.64-0.2c-8.42-0.07-16.83-0.05-25.25,0
			c-4.19,0.03-8.39,0.08-12.58,0.19c-2.03,0.05-4.06,0.1-6.09,0.22c-0.48,0.03-1.56-0.1-1.97,0.2c-0.48,0.35-0.52,1.23-0.55,1.76
			c-0.25,3.76-0.03,7.58,0.02,11.34c0.05,4.16,0.02,8.32,0.02,12.49c0,16.92,0,33.84-0.01,50.76c0,16.97,0,33.93,0,50.9
			c0,16.89,0,33.79,0,50.68c0,16.94,0,33.87,0,50.81c0,16.97,0,33.94,0,50.92c0,16.89,0,33.79,0,50.68c0,8.46,0,16.92,0,25.39
			c0,3.87,0.22,7.8-0.19,11.65c-0.06,0.56-0.07,0.97-0.59,1.25c-0.5,0.28-1.2,0.31-1.76,0.37c-1.67,0.17-3.35,0.1-5.02,0.05
			c-8.36-0.29-16.76-0.04-25.12-0.04c-8.48,0-16.95,0-25.43,0c-16.89,0-33.78,0-50.66,0.01c-16.91,0-33.83,0-50.74,0
			c-16.98,0-33.97,0-50.95,0c-16.89,0-33.78,0-50.66,0c-16.91,0-33.82,0-50.72,0c-8.35,0-16.71-0.11-25.06,0.06
			c-2.05,0.04-4.1,0.08-6.15,0.03c-0.95-0.02-1.9-0.06-2.84-0.15c-0.74-0.07-1.98-0.06-2.65-0.4c-0.54-0.27-0.41-0.69-0.42-1.29
			c-0.02-1.08-0.05-2.16-0.07-3.24c-0.04-2.05-0.04-4.1-0.04-6.14c0-16.85,0-33.7,0-50.55c0-16.89,0-33.78,0-50.67
			c0-16.96,0-33.93,0-50.89c0-16.94,0-33.87,0-50.81c0-16.89,0-33.78,0-50.67c0-16.89-0.03-33.78,0-50.67
			c0.01-8.49,0.08-16.97,0.11-25.46c0.01-4.24,0.02-8.49,0-12.73c-0.02-4.14,0.09-8.33-0.15-12.46c-0.05-0.86-0.12-1.79-0.32-2.63
			c-0.12-0.53-0.09-0.58-0.57-0.72c-1.75-0.53-3.87-0.28-5.67-0.25c-4.13,0.07-8.27,0.01-12.41,0.01c-8.46,0-16.92,0-25.37,0
			c-4.17,0-8.33,0-12.5,0.01c-1.98,0-4.08-0.2-6.03,0.14c-0.41,0.07-1.43,0.13-1.69,0.51c-0.31,0.46-0.08,1.63-0.08,2.13
			c-0.14,8.41-0.08,16.82-0.07,25.23c0.02,16.9,0,33.8,0,50.7c0,17.01,0,34.03,0,51.04c0,16.91,0,33.82,0,50.74
			c0,16.9,0,33.8,0,50.71c0,17.01,0,34.02,0,51.02c0,16.92,0,33.84,0,50.76c0,16.9,0,33.8,0,50.71c0,17,0,34,0,51
			c0,16.93,0,33.85,0,50.78c0,16.9,0,33.8,0,50.71c0,17,0,33.99,0,50.99c0,16.93,0,33.86,0,50.79c0,16.9,0,33.8,0,50.71
			c0,16.97,0,33.94,0,50.9c0,16.92,0,33.84,0,50.76c0,4.16,0,8.33,0,12.49c0,4.12-0.25,8.32,0,12.44c0.04,0.74-0.05,2.87,0.6,3.35
			c0.38,0.28,1.65,0.11,2.08,0.13c1.04,0.05,2.08,0.09,3.12,0.13c4.17,0.13,8.34,0.12,12.51,0.12c7.75,0,15.49,0.04,23.24-0.01
			c3.82-0.02,7.64-0.06,11.46-0.12C224.42,1378.08,228.42,1378.24,232.26,1377.74z M1541.66,1066.02
			c-2.45-6.25-4.86-12.52-7.88-18.52c-2.97-5.92-6.39-11.61-10.28-16.96c-7.25-9.97-16.16-18.73-26.29-25.76
			c-10.35-7.18-21.88-12.63-33.91-16.33c-12.78-3.94-26.11-5.9-39.45-6.54c-13.64-0.65-27.34,0.05-40.83,2.24
			c-12.96,2.11-25.74,5.53-37.84,10.66c-11.43,4.85-22.26,11.23-31.82,19.17c-9.46,7.85-17.56,17.31-23.17,28.29
			c-0.7,1.38-1.22,2.83-1.92,4.21c-0.29,0.57-1.44,2.36-1.92,1.01c-0.27-0.75-0.07-1.76-0.07-2.55c-0.01-1.68-0.08-3.35-0.11-5.03
			c-0.09-7.02,0.06-14.04,0.06-21.06c0-3.49,0-6.97-0.01-10.46c0-3.34-0.17-6.72,0.03-10.06c0.08-1.26,0.25-2.69-0.32-3.86
			c-0.55-1.13-1.85-1.02-2.94-1.03c-3.34-0.04-6.69,0-10.03-0.01c-13.86-0.01-27.75,0.22-41.61-0.07c-1.36-0.03-2.92-0.04-4.22,0.4
			c-0.68,0.23-0.54,0.61-0.56,1.29c-0.03,0.8-0.04,1.6-0.05,2.4c-0.04,3.51-0.08,7.03-0.11,10.54c-0.06,6.94-0.1,13.88-0.13,20.81
			c-0.07,13.97-0.12,27.93-0.16,41.9c-0.04,14.02-0.08,28.05-0.11,42.07c-0.03,13.97-0.06,27.94-0.08,41.92
			c-0.02,14.01-0.04,28.02-0.05,42.02c-0.01,14.04-0.02,28.08-0.03,42.12c-0.01,14.12-0.01,28.24,0,42.37
			c0,14.09,0.02,28.17,0.04,42.26c0.02,13.97,0.04,27.94,0.14,41.92c0.02,3.28-0.1,6.62,0.14,9.9c0.1,1.41,0.17,2.46,1.67,2.89
			c1.34,0.38,2.8,0.23,4.17,0.16c3.33-0.18,6.68-0.07,10.01-0.08c3.56-0.01,7.12-0.02,10.68-0.03c6.97-0.02,13.93-0.05,20.9-0.07
			c3.13-0.01,6.3-0.19,9.42,0.02c1.05,0.07,2.37,0.23,2.92-0.89c0.42-0.85,0.28-1.91,0.25-2.83c-0.16-6.66,0.04-13.36,0.04-20.03
			c0-7.04,0-14.08,0-21.12c0-14.15,0-28.29,0-42.44c0-14.15,0-28.29,0-42.44c0-14.15,0-28.29,0-42.44c0-14.09-0.14-28.19-0.1-42.28
			c0.03-13.73,0.12-27.5,2.05-41.11c1.84-12.94,5.27-25.7,10.95-37.5c5.32-11.07,12.61-21.15,21.86-29.26
			c9.34-8.2,20.37-14.23,32.12-18.2c12.46-4.21,25.6-6.14,38.72-6.69c13.45-0.57,27.11,0.41,40.18,3.72
			c11.16,2.83,21.84,7.89,30.66,15.34c9.11,7.69,15.76,17.79,20.37,28.71c5,11.84,7.75,24.57,9.34,37.29
			c1.71,13.68,1.9,27.47,1.97,41.23c0.07,14.13-0.06,28.27-0.06,42.4c0,14.07,0,28.15,0,42.22c0,14.14,0,28.28,0,42.42
			c0,14.14,0,28.28,0,42.42c0,13.98,0.03,27.95,0,41.93c0,1.67-0.07,3.34-0.03,5.01c0.02,0.73,0.07,1.45,0.17,2.17
			c0.08,0.55,0.06,1.46,0.4,1.93c0.44,0.61,2.2,0.5,2.96,0.53c1.69,0.06,3.39,0.02,5.08,0.02c7.06,0.01,14.11,0.01,21.17,0.01
			c7.05,0,14.09-0.01,21.14-0.02c1.75,0,3.5,0.01,5.25-0.01c1.12-0.01,2.55-0.08,3.61-0.49c0.8-0.31,0.36-1.88,0.36-2.62
			c0-1.71,0-3.41,0-5.12c0-14.12,0-28.24,0-42.35c0-14.17,0-28.34,0-42.51c0-14.17,0-28.34,0-42.51c0-14.14,0-28.28,0-42.42
			c-0.01-14.13-0.02-28.27-0.01-42.4c0.02-13.77,0.47-27.56,2.77-41.17c2.12-12.56,5.78-24.94,11.65-36.28
			c5.57-10.76,13.2-20.35,22.68-27.93c9.73-7.78,21.12-13.17,33.07-16.54c12.72-3.6,26.1-5.09,39.29-5.23
			c13.07-0.14,26.36,1.17,38.93,4.89c11.39,3.37,22.11,8.98,30.62,17.36c8.21,8.09,14.12,18.24,18.17,28.98
			c4.63,12.28,7.05,25.33,8.34,38.35c1.37,13.75,1.46,27.61,1.44,41.42c-0.02,14.1-0.11,28.21-0.11,42.31c0,14.13,0,28.26,0,42.4
			c0,14.1,0,28.2,0,42.3c0,14.11,0,28.22,0,42.33c0,14.03-0.26,28.1,0.05,42.13c0.02,0.86,0.08,1.73,0.08,2.59
			c0,0.47-0.15,1.14,0.06,1.57c0.59,1.16,2.84,0.88,3.87,0.88c3.54-0.03,7.07,0.01,10.61,0.02c7.04,0.01,14.07,0.02,21.11,0.02
			c7,0,14,0.07,21,0.01c1.25-0.01,3.06,0.08,3.26-1.45c0.2-1.54,0.18-3.12,0.14-4.67c-0.08-3.49-0.04-6.98-0.04-10.47
			c0-14.18,0-28.36,0.01-42.55c0-14.07,0-28.14,0-42.21c0-14.17,0-28.34,0-42.51c0-14.16,0-28.32,0-42.47
			c0-14.12,0.09-28.24-0.05-42.35c-0.14-14.02-0.69-28.04-2.41-41.97c-1.65-13.34-4.18-26.6-8.26-39.42
			c-3.82-12-8.99-23.62-15.9-34.16c-6.74-10.27-15.17-19.39-24.98-26.79c-10.08-7.61-21.5-13.27-33.47-17.24
			c-12.64-4.19-25.84-6.52-39.09-7.59c-13.58-1.1-27.31-1-40.88,0.23c-13.39,1.21-26.73,3.67-39.49,7.98
			c-11.86,4.01-23.19,9.65-33.24,17.13c-9.83,7.31-18.46,16.3-25.36,26.43C1551.5,1044.08,1546.52,1055.07,1541.66,1066.02z
			 M2232.76,1062.14c-0.82,0.08-1.19,0.12-1.55-0.7c-0.35-0.8-0.72-1.58-1.15-2.35c-0.98-1.76-2.01-3.49-3.01-5.23
			c-1.99-3.48-4.03-6.93-6.3-10.23c-4.39-6.37-9.49-12.27-15.02-17.68c-10.76-10.51-23.24-19.24-36.63-26.06
			c-13.94-7.1-28.92-12.03-44.28-14.93c-16.21-3.05-32.82-3.99-49.28-3.03c-16.05,0.94-32.03,3.69-47.39,8.47
			c-14.79,4.6-28.98,11.16-41.92,19.7c-12.56,8.29-23.91,18.41-33.63,29.89c-9.81,11.58-17.91,24.56-24.35,38.3
			c-6.76,14.41-11.75,29.63-15.16,45.16c-3.55,16.16-5.33,32.67-5.95,49.19c-0.63,16.68-0.15,33.43,1.87,50.01
			c1.96,16.1,5.31,32.09,10.37,47.51c4.9,14.91,11.52,29.26,19.89,42.54c8.15,12.93,17.99,24.8,29.4,34.98
			c11.38,10.15,24.28,18.54,38.07,25.04c14.32,6.75,29.53,11.43,45.12,14.17c16.11,2.83,32.58,3.81,48.91,2.78
			c16.06-1.02,31.99-4.07,47.24-9.23c14.5-4.9,28.33-11.8,40.86-20.61c12.09-8.51,23.21-18.61,32.01-30.53
			c2.23-3.02,4.3-6.15,6.18-9.4c0.95-1.65,1.86-3.32,2.71-5.03c0.42-0.84,0.73-1.75,1.2-2.56c0.41-0.71,1.02-1.15,1.59-1.72
			c0.37,10.69,0.18,21.38,0.21,32.07c0.01,5.3,0.06,10.6,0.08,15.9c0.02,4.85,0.27,9.8-0.12,14.63c-0.11,1.31-0.4,3.16,0.48,4.29
			c1.08,1.38,3.9,0.73,5.41,0.73c5.28,0.01,10.56,0.01,15.83,0.01c10.72,0.01,21.44,0.01,32.16-0.01c1.17,0,2.34,0.03,3.51-0.01
			c0.66-0.02,1.98-0.07,2.47-0.61c0.32-0.35,0.24-1.44,0.27-1.93c0.08-1.26,0.06-2.52,0.06-3.77c0-5.3-0.02-10.6-0.02-15.91
			c0-10.7-0.01-21.4-0.01-32.1c-0.01-21.39-0.02-42.78-0.02-64.17c-0.01-21.44-0.02-42.88-0.03-64.32
			c-0.01-21.38-0.02-42.75-0.03-64.13c-0.01-21.38-0.02-42.75-0.03-64.13c-0.01-21.43-0.02-42.86-0.03-64.29
			c0-2.49,0.11-5-0.01-7.49c-0.11-2.28-2.28-1.98-4-1.95c-5.32,0.11-10.65-0.01-15.97-0.01c-10.62,0-21.24,0.09-31.86,0.01
			c-2.45-0.02-4.9-0.18-7.31,0.32c-1.03,0.21-0.94,0.87-0.87,1.78c0.08,1.09,0.04,2.18,0.04,3.27c0,5.3,0,10.61,0,15.91
			c0,10.65,0,21.3,0,31.95C2232.76,1051.83,2232.76,1056.99,2232.76,1062.14z M2733.2,1377.67c0-21.94,0-43.88,0-65.82
			c0-21.94,0-43.88,0-65.83c0-21.89,0-43.79-0.01-65.68c0-21.68,0.34-43.44-2.06-65.03c-2.26-20.29-6.64-40.58-14.71-59.4
			c-7.33-17.07-17.93-32.9-32.06-45.08c-14.28-12.31-31.77-20.45-50.04-24.79c-20.36-4.83-41.59-5.48-62.36-3.44
			c-19.9,1.95-39.74,6.46-57.77,15.28c-16.31,7.97-31.25,19.41-41.67,34.42c-2.79,4.02-4.94,8.43-7.67,12.48
			c-0.92-1.36-1.05-3.05-1.02-4.64c0.03-1.76,0.11-3.51,0.11-5.26c-0.01-4.1-0.01-8.2-0.01-12.29c0-7.99-0.23-16.01,0-23.99
			c0.04-1.25,0.38-3.84-0.78-4.74c-1.13-0.87-3.56-0.42-4.87-0.42c-4.08,0.01-8.17,0.01-12.25,0.02c-8.1,0.02-16.2,0.03-24.3,0.05
			c-4.09,0.01-8.18,0.02-12.27,0.03c-0.94,0-1.88,0-2.82,0.01c-0.6,0-1.29-0.04-1.83,0.27c-1.31,0.74-0.85,3.14-0.83,4.37
			c0.15,7.88-0.01,15.77-0.01,23.65c0,16.38,0,32.76,0,49.13c0,16.43,0,32.86,0,49.29c0,16.43,0,32.86,0,49.29
			c0,16.41,0,32.81,0,49.22c0,16.39,0,32.79,0,49.18s0,32.79,0,49.18c0,16.28,0.08,32.55-0.01,48.83c-0.02,3.65-0.25,7.37,0.3,10.99
			c0.02,0.14,0.04,0.29,0.07,0.43c-0.08,0.39,0.07,0.56,0.45,0.52c1.31,0.69,3.01,0.32,4.43,0.31c2.05-0.01,4.1,0,6.16,0.01
			c4.1,0,8.21,0.01,12.31,0.01c8.1,0,16.2,0,24.29-0.01c1.97,0,3.95-0.04,5.92,0c1.63,0.03,3.22,0.14,4.82-0.27
			c0.51-0.13,1.03-0.24,1.23-0.77c0.21-0.55,0.04-1.29,0.02-1.86c-0.08-1.94-0.01-3.9-0.01-5.84c0-8.13,0-16.27,0-24.4
			c0-16.36,0-32.73,0-49.09c0-16.35,0-32.69,0-49.04c0-16.39,0-32.77,0.01-49.16c0-16.08-0.34-32.21,0.2-48.28
			c0.5-14.97,2.1-30,6.12-44.47c3.69-13.31,9.45-26.09,17.81-37.14c7.94-10.5,18.08-19.14,29.81-25.14
			c12.61-6.44,26.56-9.91,40.6-11.31c13.8-1.38,27.98-1.04,41.61,1.62c13.39,2.62,26.43,7.72,37.21,16.21
			c10.29,8.1,18.06,18.95,23.55,30.77c6.11,13.17,9.44,27.47,11.33,41.81c2.12,16.01,2.17,32.09,2.16,48.2
			c-0.02,16.41,0.01,32.82,0.01,49.24c0,16.42,0,32.84,0,49.26c0,16.35,0,32.7,0,49.06c0,16.36,0,32.72,0,49.09
			c0,2.01-0.05,4.01-0.02,6.02c0.01,0.97,0.05,1.94,0.12,2.9c0.03,0.42-0.07,1.55,0.23,1.9c0.32,0.37,1.43,0.25,1.84,0.28
			c1.03,0.07,2.06,0.11,3.09,0.15c2.03,0.07,4.06,0.12,6.1,0.16c8.15,0.18,16.3,0.22,24.44,0.16c3.9-0.03,7.8-0.09,11.7-0.15
			C2725.61,1378.1,2729.43,1378.21,2733.2,1377.67z M786.09,993.61c-0.29,11.03-0.16,22.06-0.16,33.09c0,10.96,0,21.92,0,32.88
			c0,22.03,0,44.06,0,66.08c0,22.05,0,44.1,0,66.14c0,21.83-0.22,43.74,2.35,65.45c2.39,20.16,6.97,40.31,15.3,58.89
			c7.53,16.79,18.38,32.09,32.55,43.93c14.75,12.33,32.65,20.33,51.26,24.82c9.96,2.4,20.19,3.87,30.4,4.68
			c10.59,0.84,21.25,0.85,31.82-0.19c20.06-1.96,39.59-8.02,57.24-17.77c16.42-9.07,30.91-21.46,41.67-36.89
			c1.39-2,2.72-4.05,3.99-6.13c0.62-1.01,1.17-2.07,1.81-3.07c0.5-0.79,1.15-1.15,1.94-1.63c0.35,12.21,0.16,24.43,0.17,36.64
			c0,3.04-0.01,6.08,0.01,9.12c0.01,1.44,0.01,2.87-0.04,4.3c-0.04,1.05-0.19,2.81,0.56,3.69c0.59,0.7,2.01,0.58,2.81,0.59
			c1.58,0.03,3.17,0,4.75,0.01c3.04,0,6.08,0,9.11,0c12.09,0,24.18,0,36.27-0.02c1.31,0,2.62,0.01,3.9-0.28
			c0.31-0.07,0.95-0.15,1.24-0.33c0.33-0.2,0.28-0.34,0.26-0.75c-0.08-2.69-0.05-5.39-0.05-8.08c0-6.04,0-12.07,0-18.11
			c0-24.28,0-48.56,0-72.84c0-24.49,0-48.98,0-73.47c0-24.35,0-48.71,0-73.06c0-24.28,0-48.56-0.01-72.84c0-12.21,0-24.42,0-36.63
			c0-6.1,0-12.19,0-18.29c0-1.41-0.02-2.82,0.02-4.22c0.04-1.36,0.14-2.75-0.11-4.1c-0.14-0.77-0.24-1.39-1.03-1.57
			c-1.24-0.28-2.58-0.26-3.85-0.24c-11.96,0.14-23.92,0-35.88,0.02c-3.04,0-6.07,0.01-9.11,0.01c-2.74,0-5.58-0.35-8.23,0.49
			c-0.82,0.26-0.64,0.83-0.62,1.66c0.05,1.52,0.01,3.05,0.01,4.57c0,3.04,0,6.07,0,9.11c0,24.38,0,48.77,0,73.15
			c0,24.46,0,48.93,0,73.39c0,12.16,0,24.33,0.01,36.49c0,12.11,0.2,24.23-0.56,36.32c-1.36,21.58-6.01,43.32-16.71,62.3
			c-9.86,17.49-24.88,31.54-43.33,39.6c-20.15,8.8-43.04,11.16-64.74,8.37c-11-1.42-22.04-3.95-32.19-8.52
			c-9.67-4.35-18.4-10.69-25.47-18.6c-13.69-15.32-20.71-35.46-24.18-55.41c-4.11-23.6-3.21-47.72-3.22-71.58
			c-0.01-24.34-0.01-48.68-0.01-73.03c0-24.34,0-48.69,0-73.03c0-6.13,0-12.27,0-18.4c0-6.05-0.14-12.12,0.04-18.16
			c0.08-2.55,0.19-5.23-0.44-7.73c-0.27-1.08-1.12-0.85-2.05-0.82c-1.5,0.04-3,0-4.5,0c-5.96,0-11.92,0-17.88,0
			C809.48,993.61,797.79,993.61,786.09,993.61z M2765.69,905.46c-0.83,3.81-0.18,7.75,0.6,11.51c0.79,3.78,1.87,7.47,3.37,11.02
			c2.73,6.46,6.75,12.33,11.59,17.39c9.19,9.59,21.12,16.48,34.06,19.53c13.95,3.28,29.14,2.61,42.63-2.3
			c12.49-4.55,23.13-13.06,31.28-23.46c8.85-11.29,14.74-24.64,18.4-38.45c4.01-15.14,5.14-30.74,5.29-46.35
			c0.08-8.09,0.02-16.18-0.11-24.27c-0.13-7.87-0.68-15.7-2.55-23.37c-3.33-13.67-10.16-26.47-19.57-36.93
			c-9.29-10.33-21.16-18.04-34.61-21.71c-14.03-3.83-29.14-3.2-42.91,1.4c-12.98,4.34-24.56,12.33-33.2,22.95
			c-8.94,11-14.5,24.61-15.89,38.71c-1.33,13.52,1.35,27.35,8.57,38.95c7.1,11.4,18.13,20.33,30.23,25.96
			c13.35,6.21,28.53,8.6,43.13,6.63c7.34-0.99,14.52-3.13,21.18-6.38c3.34-1.63,6.54-3.54,9.58-5.68c1.53-1.08,3.02-2.2,4.42-3.43
			c0.76-0.67,2.58-3.05,3.81-2.24c0.87,0.57,0.53,2.83,0.53,3.67c0.01,1.89-0.05,3.78-0.17,5.67c-0.24,3.93-0.72,7.84-1.38,11.71
			c-1.27,7.4-3.12,14.73-5.95,21.7c-5.2,12.78-14,25.6-27.11,31.11c-13.5,5.68-29.34,4.98-41.93-2.6
			c-5.65-3.4-10.91-7.9-14.45-13.51c-1.73-2.74-3.04-5.75-3.84-8.89c-0.45-1.75-0.67-3.54-0.9-5.33c-0.1-0.81-0.11-1.78-0.36-2.56
			c-0.21-0.64-0.72-0.62-1.35-0.69c-3.71-0.39-7.42-0.52-11.15-0.5C2773.24,904.72,2769.3,904.62,2765.69,905.46z"/>
		<path d="M232.26,1377.74c-4.02,0.52-8.2,0.34-12.25,0.4c-4.19,0.06-8.37,0.09-12.56,0.12c-8.42,0.05-16.84,0.04-25.25-0.03
			c-3.94-0.03-7.89-0.25-11.82-0.18c-0.55,0.01-1.6,0.17-2.08-0.18c-0.4-0.29-0.51-1.1-0.59-1.57c-0.31-1.85-0.23-3.78-0.21-5.65
			c0.12-8.38,0.03-16.78,0.03-25.16c0-16.92,0-33.84,0-50.76c0-16.94,0-33.87,0-50.81c0-16.92,0-33.85,0-50.77
			c0-16.97,0-33.94,0-50.9c0-16.93,0-33.86,0-50.79c0-16.93,0-33.86,0-50.79c0-16.97,0-33.94,0-50.9c0-16.86,0-33.71,0-50.57
			c0-17,0-34.01,0-51.01c0-16.9,0-33.8,0-50.71c0-16.9,0-33.8,0-50.71c0-16.98,0-33.96,0-50.94c0-16.95,0-33.89,0-50.84
			c0-16.9,0-33.8,0-50.71c0-16.89,0.04-33.79-0.01-50.68c-0.01-4.22-0.03-8.45-0.02-12.67c0.01-2.11,0.02-4.22,0.05-6.34
			c0.01-0.91,0.01-1.8-0.02-2.71c-0.01-0.49-0.16-1.7,0.22-2.07c0.35-0.35,1.6-0.39,2.06-0.45c1.02-0.15,2.06-0.15,3.09-0.13
			c2.01,0.03,4.01,0.07,6.02,0.06c4.1,0,8.19-0.01,12.29-0.01c8.47,0,16.94,0,25.41,0c4.17,0,8.37-0.14,12.54,0.02
			c0.65,0.02,1.7-0.05,2.3,0.24c0.53,0.25,0.49,1.06,0.58,1.59c0.33,1.96,0.26,3.94,0.23,5.92c-0.25,16.86-0.01,33.73-0.01,50.59
			c0.01,16.89,0,33.78,0,50.66c0,17,0,34.01,0,51.01c0,16.9,0,33.79,0,50.69c0,16.89,0,33.78,0,50.67c0,16.93,0,33.86,0,50.79
			c0,16.84-0.2,33.7,0.01,50.55c0.02,1.86-0.07,3.79,0.08,5.65c0.04,0.57-0.02,0.62,0.49,0.79c0.8,0.27,1.81,0.29,2.64,0.36
			c4.1,0.33,8.28,0.07,12.39,0.06c8.47-0.02,16.95-0.01,25.42,0.01c16.92,0.03,33.84,0.03,50.76,0.03c16.91,0,33.82,0,50.73,0
			c16.89,0,33.78,0,50.66,0c16.92,0,33.83,0,50.75,0c16.98,0,33.97,0,50.95-0.01c8.48,0,16.95,0,25.43,0c4.12,0,8.24,0,12.36,0
			c4.12,0,8.26,0.17,12.37,0.09c1.05-0.02,3.16,0,3.7-1.07c0.74-1.46,0.44-3.63,0.39-5.2c-0.13-3.97-0.03-7.96-0.03-11.93
			c0-8.43,0-16.85,0-25.28c0-16.97,0-33.95,0-50.92c0-16.93,0-33.87,0-50.8c0-16.89,0-33.79,0-50.68c0-16.9,0-33.8,0-50.71
			c0-16.94,0-33.88,0-50.82c0-16.93,0-33.87,0.01-50.8c0-4.14,0.01-8.27,0.01-12.41c0-1.93-0.12-3.86-0.06-5.78
			c0.02-0.8-0.15-2.44,0.74-2.82c0.5-0.21,1.19-0.06,1.72-0.07c1.01-0.01,2.01-0.09,3.02-0.12c2.09-0.07,4.19-0.12,6.28-0.16
			c4.21-0.08,8.43-0.12,12.64-0.14c8.36-0.04,16.73-0.06,25.09,0.04c4.07,0.05,8.13,0.25,12.2,0.28c0.62,0,1.34-0.14,1.95,0.04
			c0.61,0.18,0.64,0.6,0.73,1.2c0.27,1.76,0.28,3.52,0.28,5.3c-0.01,16.78-0.01,33.55-0.01,50.33c0,16.93,0,33.87,0,50.8
			c0,16.99,0,33.99,0,50.98c0,16.9,0,33.8,0,50.71c0,16.93,0,33.85,0,50.78c0,17,0,34,0,51c0,16.9,0,33.8,0,50.71
			c0,16.92,0,33.84,0,50.76c0,16.94,0,33.88,0,50.82c0,16.9,0,33.8,0,50.71c0,16.97,0,33.94,0,50.9c0,16.91,0,33.82,0,50.74
			c0,16.95,0,33.9,0,50.84c0,16.9,0,33.8,0,50.71c0,16.9-0.03,33.81,0,50.71c0.01,8.51,0.08,17.01,0.08,25.52
			c0,4.25-0.01,8.51-0.05,12.76c-0.02,2.13-0.05,4.25-0.08,6.38c-0.02,1-0.03,1.99-0.05,2.99c-0.01,0.69,0.16,1.66-0.32,2.25
			c-0.65,0.78-2.01,0.66-2.91,0.64c-1.72-0.05-3.44-0.02-5.17-0.01c-4.17,0.01-8.33,0.03-12.5,0.04
			c-8.42,0.03-16.84,0.05-25.26,0.07c-4.2,0.01-8.39,0.03-12.59,0.03c-1.52,0-3.84,0.41-5.13-0.58c-0.46-0.35-0.43-0.71-0.48-1.28
			c-0.1-1.02-0.15-2.05-0.16-3.08c-0.1-8.42,0-16.86,0-25.28c0-16.97,0-33.94,0-50.9c0-16.94,0-33.88,0-50.81
			c0-16.91,0-33.81,0-50.72c0-16.89,0-33.79,0-50.68c0-16.93,0-33.86,0-50.8c0-16.98,0-33.96,0-50.94c0-16.89,0-33.78-0.01-50.67
			c0-2.08,0.16-4.19,0.04-6.27c-0.05-0.8-0.06-1.95-0.44-2.67c-0.31-0.59-0.89-0.53-1.52-0.61c-3.96-0.54-8.07-0.23-12.06-0.23
			c-8.51,0-17.01,0-25.52,0c-16.98,0-33.97,0-50.95,0c-16.83,0-33.65,0-50.48,0c-16.98,0-33.97,0-50.95,0c-16.92,0-33.85,0-50.77,0
			c-16.89,0-33.79,0-50.68,0.01c-8.48,0-16.96,0-25.44,0.01c-8.33,0-16.68,0.14-25-0.1c-1.42-0.04-3.68-0.16-4.86,0.82
			c-0.56,0.47-0.4,1.21-0.41,1.87c-0.01,1.02-0.02,2.03-0.03,3.05c-0.03,4.23-0.03,8.46-0.03,12.69c0.01,8.47,0.01,16.93,0.01,25.4
			c0,16.88,0.01,33.76,0.01,50.64c0,16.9,0,33.8,0,50.71c0,16.91,0,33.81,0,50.72c0,16.99,0,33.98,0,50.97c0,16.9,0,33.8,0,50.7
			c0,16.87,0,33.75,0,50.62C232.26,1346.49,232.26,1362.12,232.26,1377.74z"/>
		<path d="M1541.66,1066.02c2.74-6.16,5.39-12.36,8.49-18.35c3.05-5.89,6.55-11.55,10.51-16.88c7.31-9.86,16.23-18.53,26.35-25.48
			c10.48-7.2,22.19-12.48,34.34-16.15c12.91-3.89,26.32-6.01,39.75-6.94c13.6-0.94,27.36-0.8,40.92,0.61
			c13.1,1.37,26.12,4.05,38.5,8.61c11.75,4.33,22.85,10.39,32.55,18.34c9.54,7.82,17.6,17.29,23.98,27.84
			c6.59,10.88,11.43,22.77,14.96,34.97c3.77,13.03,6.04,26.45,7.48,39.92c1.49,13.92,1.82,27.93,1.88,41.92
			c0.06,14.12,0.02,28.25,0.02,42.37c0,14.09,0,28.18,0,42.28c0,14.17,0,28.34,0,42.51c0,14.07,0,28.14,0,42.21
			c-0.01,14.16-0.09,28.32-0.02,42.48c0.02,3.4,0.29,6.9-0.1,10.28c-0.04,0.33,0.01,0.93-0.23,1.2c-0.28,0.33-0.95,0.31-1.34,0.37
			c-1.44,0.21-2.87,0.22-4.33,0.17c-6.94-0.25-13.91-0.06-20.85-0.07c-7.05,0-14.09-0.01-21.14-0.02c-1.72,0-3.45-0.01-5.17-0.01
			c-1.46,0-2.93,0.19-4.39,0.03c-0.97-0.1-2.31-0.23-2.4-1.36c-0.14-1.65-0.15-3.33-0.17-4.98c-0.12-14.05-0.01-28.11-0.01-42.16
			c0-14.04,0-28.08,0-42.12c0-14.12,0-28.24,0-42.36c0-14.09,0-28.19,0-42.28c0-14.12,0.07-28.25,0.11-42.37
			c0.03-13.82-0.12-27.68-1.55-41.44c-1.35-13-3.86-26.02-8.6-38.24c-4.1-10.56-10.09-20.49-18.26-28.41
			c-8.61-8.34-19.4-13.85-30.86-17.14c-12.5-3.58-25.69-4.85-38.66-4.7c-13.17,0.15-26.53,1.71-39.21,5.34
			c-11.92,3.41-23.29,8.84-32.97,16.64c-9.38,7.57-16.95,17.13-22.47,27.82c-5.87,11.36-9.52,23.78-11.62,36.36
			c-2.27,13.58-2.71,27.38-2.74,41.13c-0.02,14.11,0,28.22,0,42.33c0,14.15,0,28.31,0,42.46c0,14.07,0,28.15,0,42.22
			c0,14.15,0,28.31,0,42.46c0,14.09,0,28.18,0,42.27c0,1.71,0,3.42,0,5.14c0,1.07,0.49,2.72-0.82,3.03
			c-3.07,0.71-6.32,0.38-9.45,0.39c-7.06,0.01-14.11,0.01-21.17,0.02c-7,0-13.99,0-20.99-0.01c-1.54,0-3.08,0.13-4.62,0.06
			c-0.66-0.03-1.48-0.05-2.1-0.32c-0.52-0.23-0.5-0.49-0.6-1.04c-0.65-3.35-0.4-6.86-0.4-10.26c0-14.12,0.03-28.24,0.03-42.36
			c0-14.16,0-28.31,0-42.47c0-14.12,0-28.23,0-42.35c0-14.14,0-28.28,0-42.42c0-14.02,0.16-28.03,0.07-42.05
			c-0.09-13.69-0.39-27.41-2.22-41c-1.7-12.6-4.6-25.19-9.75-36.85c-4.76-10.77-11.58-20.68-20.78-28.13
			c-9.1-7.37-20.03-12.15-31.36-14.87c-13.02-3.12-26.62-3.95-39.97-3.25c-13.03,0.68-26.07,2.72-38.41,7.06
			c-11.56,4.07-22.37,10.15-31.51,18.34c-9.15,8.19-16.34,18.3-21.57,29.39c-5.55,11.77-8.89,24.46-10.67,37.33
			c-1.88,13.6-1.92,27.32-1.95,41.02c-0.04,14.06,0.06,28.13,0.06,42.19c0,14.15,0,28.29,0,42.44c0,14.19,0,28.38,0,42.56
			c0,14.1,0,28.19,0,42.29c0,7.04,0,14.08,0,21.12c0,3.56,0.01,7.13,0.01,10.69c0,3.27-0.2,6.59-0.05,9.85
			c0.05,1.01,0.16,2.16-0.88,2.69c-0.86,0.43-1.97,0.29-2.89,0.22c-3.08-0.23-6.23-0.04-9.33-0.03c-6.99,0.02-13.98,0.02-20.97,0.08
			c-7.03,0.07-14.05,0.25-21.08,0.09c-1.19-0.03-3.51,0.26-4.4-0.75c-0.69-0.79-0.5-2.76-0.52-3.75c-0.07-3.41-0.08-6.83-0.11-10.24
			c-0.09-14.05-0.11-28.1-0.13-42.14c-0.02-14.06-0.03-28.13-0.04-42.19c0-14.04,0-28.07,0-42.11c0.01-14.08,0.02-28.16,0.03-42.25
			c0.01-14.19,0.03-28.37,0.06-42.56c0.02-14.03,0.05-28.06,0.08-42.09c0.03-14.05,0.07-28.09,0.11-42.14
			c0.04-14.04,0.09-28.07,0.17-42.11c0.04-7.07,0.08-14.14,0.14-21.21c0.02-1.73,0.03-3.46,0.06-5.19c0.02-1.57-0.19-3.2,0.02-4.76
			c0.07-0.51-0.01-0.78,0.43-1.02c0.37-0.2,0.97-0.22,1.39-0.28c1.62-0.22,3.3-0.07,4.93-0.07c13.87-0.02,27.74-0.02,41.61-0.01
			c1.73,0,3.46-0.01,5.18-0.03c1.52-0.02,3.28-0.19,4.77,0.19c1.34,0.34,1.43,1.93,1.46,3.11c0.04,1.73-0.08,3.48-0.1,5.22
			c-0.09,6.95,0.04,13.9,0.05,20.85c0,6.99-0.11,13.99,0.02,20.98c0.02,0.84,0.05,1.68,0.08,2.51c0.01,0.31-0.13,1.34,0.14,1.59
			c0.76,0.71,1.68-1.05,1.88-1.51c1.16-2.73,2.47-5.37,3.96-7.95c6.13-10.55,14.61-19.54,24.24-26.97
			c9.9-7.63,20.95-13.69,32.59-18.22c12.25-4.76,25.13-7.87,38.13-9.69c13.53-1.89,27.25-2.31,40.88-1.35
			c13.28,0.93,26.52,3.23,39.13,7.57c11.89,4.09,23.22,9.9,33.29,17.46c9.81,7.37,18.34,16.41,25.21,26.58
			C1532.51,1043.75,1537.27,1054.84,1541.66,1066.02z"/>
		<path d="M2232.76,1062.14c0.01-21.41,0-42.83,0.01-64.24c0-0.88,0.01-1.75-0.05-2.62c-0.06-0.79-0.23-1.37,0.63-1.54
			c2.04-0.41,4.14-0.41,6.21-0.35c5.18,0.14,10.38,0.04,15.56,0.03c10.62,0,21.24,0,31.86,0.01c1.45,0,5.02-0.64,5.68,1.18
			c0.34,0.94,0.09,2.27,0.09,3.25c0,1.3,0,2.59,0,3.89c0,5.32,0,10.63,0.01,15.95c0,10.71,0.01,21.43,0.01,32.14
			c0.01,21.25,0.02,42.51,0.03,63.76c0.01,21.44,0.02,42.89,0.03,64.33c0.01,21.31,0.02,42.62,0.03,63.93
			c0.01,21.38,0.02,42.75,0.02,64.13c0.01,21.35-0.19,42.72,0.04,64.07c0.01,1.31,0.03,2.61,0,3.92c-0.01,0.57-0.03,1.14-0.06,1.71
			c-0.03,0.45,0.09,1.3-0.13,1.72c-0.34,0.65-1.84,0.7-2.46,0.76c-1.22,0.12-2.47,0.07-3.7,0.07c-5.27,0.01-10.55,0.01-15.82,0.01
			c-10.71,0-21.42-0.01-32.13-0.02c-1.44,0-4.12,0.58-5.25-0.55c-1.2-1.2-0.77-3.45-0.65-4.94c0.19-2.34,0.06-4.72,0.06-7.06
			c-0.01-2.64-0.01-5.29-0.02-7.93c-0.02-10.54-0.01-21.08-0.01-31.62c0-5.17-0.02-10.35-0.2-15.52c-0.62,0.63-1.26,1.1-1.69,1.9
			c-0.41,0.77-0.71,1.6-1.1,2.38c-0.91,1.82-1.88,3.6-2.9,5.36c-1.99,3.41-4.2,6.7-6.58,9.86c-4.64,6.16-9.94,11.8-15.62,17.02
			c-11.1,10.19-23.68,18.76-37.22,25.37c-14.18,6.91-29.36,11.7-44.86,14.53c-16.28,2.97-32.95,3.69-49.45,2.48
			c-16.04-1.18-32.03-4.01-47.31-9.1c-14.74-4.91-28.88-11.81-41.7-20.6c-12.49-8.57-23.69-18.98-33.2-30.76
			c-9.72-12.04-17.74-25.45-24.07-39.57c-6.51-14.54-11.17-29.84-14.37-45.43c-3.33-16.22-5.05-32.73-5.52-49.27
			c-0.47-16.77,0.27-33.62,2.45-50.26c2.11-16.08,5.71-31.98,11.1-47.3c5.13-14.6,11.85-28.68,20.4-41.6
			c8.25-12.48,18.2-23.84,29.55-33.58c11.54-9.9,24.5-18.11,38.38-24.33c14.53-6.51,29.97-10.88,45.66-13.43
			c16.26-2.65,32.84-3.3,49.27-2.04c16.1,1.24,32.09,4.36,47.29,9.86c14.31,5.18,27.88,12.43,40.11,21.51
			c11.79,8.76,22.53,19.33,30.65,31.62c2.14,3.24,4.07,6.61,6,9.98c0.9,1.58,1.86,3.13,2.7,4.74c0.3,0.57,0.54,1.7,1.07,2.1
			C2231.93,1062.28,2232.28,1062.19,2232.76,1062.14z M2222.88,1184.99c0-7.93-0.24-15.88-1.24-23.76
			c-0.97-7.68-2.53-15.29-4.61-22.74c-3.96-14.25-9.8-27.99-17.35-40.7c-7.29-12.27-16.3-23.52-26.9-33.08
			c-10.51-9.49-22.47-17.41-35.36-23.27c-13.55-6.15-28.2-9.82-43.08-10.43c-15.28-0.63-30.64,1.86-45.11,6.75
			c-13.51,4.57-26.14,11.58-37.26,20.48c-11.11,8.9-20.76,19.57-28.89,31.23c-8.3,11.89-14.93,24.94-19.65,38.65
			c-4.99,14.51-7.89,29.73-8.93,45.03c-1.07,15.62-0.09,31.38,3.1,46.72c3.03,14.56,7.82,28.8,14.55,42.08
			c6.51,12.85,14.84,24.77,24.69,35.28c9.61,10.27,20.69,19.18,33.01,26c12.77,7.07,26.72,11.93,41.18,14
			c3.95,0.56,7.92,0.98,11.89,1.4c2.04,0.22,4.08,0.52,6.12,0.64c1.87,0.11,3.72-0.29,5.56-0.55c3.83-0.53,7.68-0.83,11.5-1.41
			c3.9-0.58,7.78-1.36,11.6-2.32c13.91-3.46,27.12-9.51,39.04-17.45c11.86-7.9,22.35-17.75,31.21-28.89
			c8.97-11.28,16.39-23.8,22.01-37.07c5.91-13.95,9.75-28.74,11.6-43.77C2222.46,1200.25,2222.89,1192.61,2222.88,1184.99z"/>
		<path d="M2733.2,1377.67c-5.93,0.85-12.1,0.51-18.07,0.57c-6.09,0.06-12.19,0.06-18.28,0.02c-6.03-0.03-12.06-0.09-18.09-0.32
			c-0.65-0.02-1.3-0.05-1.95-0.09c-0.58-0.04-1.38,0.05-1.93-0.16c-0.64-0.25-0.49-1.16-0.51-1.82c-0.06-2.67-0.12-5.33-0.09-8.01
			c0.18-12.21,0.02-24.43,0.02-36.63c0-12.36,0-24.73,0-37.09c0-24.46,0-48.92,0-73.39c0-12.19,0-24.37-0.01-36.56
			c0-12.3,0.17-24.62-0.19-36.92c-0.62-21.46-3.29-43.59-11.63-63.55c-3.94-9.44-9.23-18.37-16.18-25.91
			c-6.44-6.99-14.18-12.73-22.69-16.96c-9.57-4.76-20.05-7.47-30.61-8.89c-11.56-1.56-23.37-1.61-34.96-0.4
			c-20.67,2.15-40.92,8.93-56.97,22.46c-15.9,13.41-25.76,32.35-31.13,52.2c-2.88,10.64-4.56,21.57-5.34,32.56
			c-0.85,12.03-0.69,24.1-0.69,36.15c-0.01,24.54-0.01,49.08-0.01,73.62c0,24.45,0,48.9,0,73.35c0,12.35,0,24.7,0,37.05
			c0,5.9-0.15,11.82,0,17.71c0.02,0.92-0.11,0.91-1.01,1.16c-1.37,0.38-2.63,0.47-4.05,0.45c-2.96-0.03-5.91-0.04-8.87-0.03
			c-12.21,0.01-24.41,0.01-36.62-0.01c-1.46,0-2.93,0-4.39,0c-1.27,0-3.03,0.29-4.22-0.31c-0.77-0.39-0.63-1.66-0.7-2.42
			c-0.14-1.5-0.13-2.99-0.12-4.5c0.04-6.09,0-12.17,0-18.26c0-24.6,0-49.21,0-73.81c0-24.61,0-49.22,0-73.83
			c0-24.48,0-48.95,0-73.43c0-24.61,0-49.23,0-73.84c0-12.23,0-24.45,0-36.68c0-5.99,0-11.98,0-17.98c0-1.41,0-2.82,0.02-4.22
			c0.02-1.3-0.13-2.78,0.11-4.06c0.19-1.01,1.15-1.33,2.07-1.38c1.28-0.07,2.6,0.06,3.89,0.05c12.34-0.03,24.68-0.06,37.02-0.09
			c3-0.01,5.99-0.02,8.99-0.09c1.41-0.03,2.81-0.05,4.22,0c1.09,0.04,2.7-0.1,3.26,1.05c0.51,1.05,0.45,2.43,0.42,3.56
			c-0.04,1.52-0.05,3.03-0.05,4.55c0,3.01,0.01,6.02,0.02,9.02c0,5.82,0,11.63,0.01,17.45c0,2.87,0.05,5.74,0.01,8.61
			c-0.03,2.37-0.51,5.05,0.91,7.15c2.83-4.2,5.06-8.77,7.98-12.93c2.87-4.09,6.07-7.94,9.56-11.51
			c6.82-6.98,14.69-12.88,23.11-17.81c16.89-9.89,35.8-15.61,55.07-18.54c20.68-3.14,41.98-3.43,62.66-0.13
			c18.87,3.01,37.37,9.55,53.03,20.65c14.98,10.62,26.88,25.04,35.35,41.27c9.17,17.57,14.58,36.97,17.72,56.48
			c3.4,21.19,3.8,42.68,3.87,64.1c0.07,21.86,0,43.71,0,65.57c0,21.63,0,43.26,0,64.89c0,21.74,0,43.48,0,65.22
			C2733.2,1367.25,2733.2,1372.46,2733.2,1377.67z"/>
		<path d="M786.09,993.61c12.2,0,24.41,0,36.61,0c6.02,0,12.03,0,18.05,0c1.25,0,2.5,0.02,3.75,0c0.19,0,0.68-0.12,0.84,0
			c0.24,0.19,0.21,0.82,0.26,1.11c0.55,2.85,0.47,5.71,0.43,8.6c-0.17,12.23-0.02,24.46-0.02,36.69c0,12.24,0,24.47,0,36.71
			c0,24.53,0,49.06,0,73.59c0,12.21,0.01,24.43,0.01,36.64c0,12.19-0.24,24.39,0.09,36.58c0.58,21.76,3.34,43.95,12.12,64.07
			c7.78,17.8,20.81,33.09,38.41,41.72c10.1,4.95,21.18,7.66,32.26,9.28c11.79,1.72,23.8,1.83,35.62,0.28
			c20.53-2.68,40.7-10.2,56.1-24.36c15.24-14.01,25.07-33.05,30.2-52.93c5.82-22.6,5.61-45.93,5.61-69.09
			c-0.01-24.47-0.01-48.95-0.01-73.42c0-24.48,0-48.97,0-73.45c0-12.2,0-24.4,0-36.6c0-2.97,0-5.94,0-8.91
			c0-1.24-0.09-2.46-0.12-3.7c-0.01-0.53-0.01-1.06,0.07-1.59c0.06-0.44,0.07-0.56,0.29-0.76c0.61-0.53,2.07-0.58,2.82-0.61
			c1.59-0.08,3.19-0.01,4.77-0.01c3.04,0,6.07-0.01,9.11-0.01c12.14-0.01,24.28-0.02,36.42,0c1.32,0,2.66,0.01,3.97,0.21
			c1.25,0.19,1.33,1.07,1.44,2.25c0.28,2.96,0.04,6.05,0.04,9.02c0,6.1,0,12.2,0,18.3c0,24.36,0.01,48.71,0.01,73.07
			c0,24.34,0,48.68,0,73.03c0,24.42,0,48.84,0,73.26c0,24.48,0,48.97,0,73.45c0,12.14,0,24.29,0,36.43c0,6.04,0,12.07,0,18.11
			c0,1.43-0.01,2.87,0,4.3c0.01,0.9,0.5,2.35-0.48,2.85c-0.98,0.5-2.28,0.56-3.36,0.57c-1.49,0.01-2.98-0.03-4.47-0.03
			c-12.2,0.02-24.41,0.02-36.61,0.02c-2.96,0-5.91-0.02-8.87,0.01c-1.1,0.01-2.22,0.03-3.32-0.06c-1.12-0.1-1.42-0.58-1.62-1.64
			c-0.22-1.16-0.14-2.33-0.1-3.5c0.06-1.59,0.02-3.18,0.01-4.76c-0.01-3.04-0.01-6.08-0.01-9.12c-0.01-11.76,0.17-23.52-0.16-35.27
			c-0.78,0.47-1.43,0.81-1.93,1.6c-0.7,1.11-1.32,2.28-2.01,3.4c-1.36,2.22-2.79,4.4-4.3,6.52c-2.96,4.19-6.2,8.18-9.69,11.94
			c-6.7,7.21-14.32,13.51-22.54,18.9c-16.55,10.84-35.57,18.29-55.07,21.59c-20.18,3.41-41.19,2.75-61.34-0.59
			c-19.2-3.18-38.08-9.5-54.27-20.48c-15.15-10.26-27.46-24.16-36.29-40.15c-9.58-17.33-15.24-36.58-18.58-56.02
			c-3.66-21.28-4.31-42.79-4.31-64.34c0-21.91,0-43.83,0-65.74c0-21.76,0-43.53,0-65.29c0-21.92,0-43.83,0-65.75
			C785.93,1004.2,785.96,998.9,786.09,993.61z"/>
		<path d="M2765.69,905.46c3.79-0.88,7.93-0.76,11.79-0.76c2.09,0,4.18,0.04,6.27,0.14c0.91,0.04,1.83,0.11,2.74,0.2
			c0.72,0.07,1.86,0,2.54,0.29c0.84,0.35,0.64,1.92,0.71,2.7c0.16,1.79,0.44,3.6,0.85,5.34c0.74,3.14,2,6.15,3.69,8.9
			c3.5,5.71,8.76,10.29,14.44,13.76c6.3,3.85,13.41,6.12,20.8,6.48c7.31,0.35,14.88-0.93,21.62-3.81
			c6.3-2.69,11.55-7.06,15.93-12.28c8.59-10.23,13.49-23.17,16.11-36.14c0.8-3.97,1.36-7.98,1.78-12.01
			c0.41-3.89,0.84-7.84,0.55-11.76c-0.04-0.49-0.04-1.23-0.49-1.55c-0.62-0.44-1.43,0.06-1.9,0.48c-1.33,1.19-2.58,2.39-4.01,3.47
			c-3.07,2.32-6.28,4.43-9.67,6.24c-12.94,6.93-28,9.35-42.52,7.65c-14.23-1.66-28-7.2-39.23-16.14
			c-10.29-8.19-18.43-19.24-21.87-32.04c-3.85-14.31-2.32-29.93,3.2-43.6c5.15-12.77,13.96-24.02,25.22-31.96
			c11.7-8.26,25.82-12.9,40.12-13.44c14.53-0.56,29.01,3.22,41.2,11.19c11.41,7.46,20.67,18.13,27.09,30.11
			c3.31,6.16,5.86,12.73,7.56,19.52c1.9,7.62,2.49,15.4,2.62,23.24c0.14,8.21,0.15,16.42,0.08,24.63c-0.07,7.9-0.29,15.8-1.13,23.66
			c-1.61,15.04-5.22,30.01-11.77,43.69c-5.92,12.37-14.37,23.84-25.49,32.01c-11.25,8.27-24.83,12.61-38.73,13.13
			c-14.4,0.54-28.86-2.8-41.12-10.49c-11.04-6.91-20.39-16.96-25.31-29.12c-1.38-3.41-2.37-6.95-3.1-10.55
			C2765.48,912.98,2764.89,909.15,2765.69,905.46z M2834.44,770.02c-10.01-0.16-19.7,3.83-27.55,9.88
			c-7.33,5.65-13.25,13.18-16.18,22.02c-3.3,9.94-2.87,21.11,1.18,30.77c3.63,8.67,10.24,15.86,18.06,20.97
			c15.01,9.81,35.55,10.44,51.24,1.85c8.03-4.39,15.04-11.24,19.41-19.29c4.95-9.1,6.25-20.02,4.04-30.1
			c-2.09-9.54-7.57-17.91-14.94-24.24c-7.62-6.53-17.06-10.24-26.99-11.39C2839.97,770.16,2837.2,770.02,2834.44,770.02z"/>
		<path class="st0" d="M2222.88,1184.99c0.03,15.53-1.81,31.09-5.87,46.1c-3.85,14.22-9.69,27.89-17.28,40.51
			c-7.32,12.17-16.2,23.46-26.66,33.09c-10.46,9.64-22.48,17.59-35.45,23.4c-6.9,3.09-14.11,5.6-21.49,7.28
			c-7.56,1.73-15.29,2.53-22.97,3.54c-3.9,0.51-7.63-0.01-11.52-0.42c-3.85-0.4-7.69-0.83-11.52-1.4
			c-7.61-1.13-15.08-3.08-22.31-5.7c-13.38-4.86-25.89-12.02-36.93-21c-10.98-8.94-20.58-19.57-28.57-31.25
			c-8.26-12.08-14.71-25.36-19.32-39.24c-4.84-14.53-7.81-29.7-8.66-45c-0.87-15.58,0.37-31.27,3.55-46.54
			c3.04-14.6,8-28.8,14.93-42.02c6.66-12.69,15.06-24.47,24.89-34.9c9.62-10.21,20.74-19.05,33.11-25.7
			c12.98-6.98,27.26-11.49,41.84-13.59c15.26-2.2,30.93-1.46,45.85,2.49c13.91,3.68,27.04,10.02,38.94,18.07
			c11.69,7.92,22.19,17.57,30.97,28.64c8.97,11.32,16.18,23.99,21.74,37.3c5.81,13.91,9.84,28.63,11.64,43.6
			C2222.67,1169.8,2222.88,1177.4,2222.88,1184.99z"/>
		<path class="st0" d="M2834.44,770.02c10.15,0.01,20.45,2.02,29.18,7.39c7.96,4.9,14.71,12.18,18.47,20.78
			c3.97,9.1,4.68,19.69,2.01,29.24c-2.47,8.84-7.95,16.58-14.9,22.49c-7.33,6.24-16.31,10.14-25.88,11.2
			c-9.96,1.11-20.31-0.43-29.26-5.04c-8.21-4.23-15.42-10.8-19.98-18.87c-4.91-8.7-6.63-19.09-4.96-28.93
			c1.6-9.42,6.27-17.86,13.15-24.45c6.75-6.46,15.19-11.41,24.44-13.14C2829.27,770.21,2831.85,769.98,2834.44,770.02z"/>
	</g>
</g>
</svg>
